<?xml version="1.0" encoding="UTF-8" standalone="no"?><!DOCTYPE svg PUBLIC "-//W3C//DTD SVG 1.1//EN" "http://www.w3.org/Graphics/SVG/1.1/DTD/svg11.dtd"><svg width="100%" height="100%" viewBox="0 0 3255 1588" version="1.1" xmlns="http://www.w3.org/2000/svg" xmlns:xlink="http://www.w3.org/1999/xlink" xml:space="preserve" xmlns:serif="http://www.serif.com/" style="fill-rule:evenodd;clip-rule:evenodd;"><g><path d="M1246.71,1578.29l0,-1575.04l-360.041,0l0,1575.04l360.041,0Z" style="fill:#fff;stroke:#000;stroke-width:4.17px;"/><path d="M977.03,1544.96l0,-19.434l126.367,0l0,-72.656l17.09,0l0,92.09l-143.457,0Z" style="fill-rule:nonzero;"/><path d="M1013.55,1392.52c0,-7.422 1.742,-14.616 5.225,-21.582c3.483,-6.967 7.991,-12.273 13.525,-15.918c5.273,-3.516 11.426,-5.86 18.457,-7.032c4.818,-1.041 12.5,-1.562 23.047,-1.562l0,76.66c10.612,-0.326 19.124,-2.832 25.537,-7.52c6.413,-4.687 9.619,-11.946 9.619,-21.777c0,-9.18 -3.027,-16.504 -9.082,-21.973c-3.516,-3.125 -7.585,-5.338 -12.207,-6.64l0,-17.285c3.841,0.455 8.122,1.969 12.842,4.541c4.72,2.571 8.577,5.452 11.572,8.642c5.208,5.339 8.724,11.947 10.547,19.824c1.042,4.232 1.563,9.017 1.563,14.356c0,13.021 -4.737,24.056 -14.209,33.105c-9.473,9.05 -22.738,13.575 -39.795,13.575c-16.797,0 -30.437,-4.558 -40.918,-13.672c-10.482,-9.115 -15.723,-21.029 -15.723,-35.742Zm46.289,-28.028c-7.617,0.716 -13.704,2.377 -18.262,4.981c-8.463,4.817 -12.695,12.858 -12.695,24.121c0,8.073 2.913,14.844 8.74,20.312c5.827,5.469 13.233,8.366 22.217,8.692l0,-58.106Z" style="fill-rule:nonzero;"/><path d="M1014.04,1287.93c0,-8.203 2.018,-15.365 6.055,-21.485c2.279,-3.32 5.599,-6.705 9.961,-10.156l-13.184,0l0,-16.211l95.117,0c13.282,0 23.764,1.953 31.446,5.86c14.193,7.291 21.289,21.061 21.289,41.308c0,11.263 -2.523,20.736 -7.568,28.418c-5.046,7.682 -12.94,11.979 -23.682,12.891l0,-17.871c4.687,-0.847 8.301,-2.539 10.84,-5.079c3.906,-3.971 5.859,-10.221 5.859,-18.75c0,-13.476 -4.753,-22.298 -14.258,-26.464c-5.599,-2.474 -15.592,-3.614 -29.98,-3.418c5.338,3.515 9.31,7.747 11.914,12.695c2.604,4.948 3.906,11.491 3.906,19.629c0,11.328 -4.02,21.24 -12.06,29.736c-8.041,8.496 -21.338,12.744 -39.893,12.744c-17.513,0 -31.185,-4.28 -41.016,-12.841c-9.83,-8.562 -14.746,-18.897 -14.746,-31.006Zm53.711,-31.641c-12.956,0 -22.558,2.669 -28.808,8.008c-6.25,5.338 -9.375,12.142 -9.375,20.41c0,12.37 5.794,20.833 17.382,25.391c6.185,2.409 14.291,3.613 24.317,3.613c11.784,0 20.752,-2.393 26.904,-7.178c6.152,-4.785 9.229,-11.214 9.229,-19.287c0,-12.63 -5.697,-21.517 -17.09,-26.66c-6.446,-2.865 -13.965,-4.297 -22.559,-4.297Z" style="fill-rule:nonzero;"/><path d="M1016.38,1213.61l0,-17.871l104.102,0l0,17.871l-104.102,0Zm-39.355,0l0,-17.871l19.921,0l0,17.871l-19.921,0Z" style="fill-rule:nonzero;"/><path d="M1087.67,1158.73c5.859,-0.52 10.352,-1.985 13.477,-4.394c5.664,-4.427 8.496,-12.109 8.496,-23.047c0,-6.51 -1.416,-12.24 -4.248,-17.187c-2.832,-4.948 -7.211,-7.422 -13.135,-7.422c-4.492,0 -7.91,1.985 -10.254,5.957c-1.432,2.539 -3.092,7.552 -4.98,15.039l-3.516,13.965c-2.214,8.919 -4.688,15.494 -7.422,19.726c-4.753,7.552 -11.328,11.328 -19.727,11.328c-9.895,0 -17.903,-3.564 -24.023,-10.693c-6.12,-7.129 -9.18,-16.716 -9.18,-28.76c0,-15.755 4.623,-27.116 13.868,-34.082c5.859,-4.362 12.174,-6.478 18.945,-6.347l0,16.601c-3.971,0.326 -7.585,1.725 -10.84,4.199c-4.622,4.037 -6.934,11.035 -6.934,20.996c0,6.641 1.27,11.67 3.809,15.088c2.539,3.418 5.892,5.127 10.059,5.127c4.557,0 8.203,-2.246 10.937,-6.738c1.628,-2.604 3.06,-6.445 4.297,-11.523l2.832,-11.622c3.06,-12.63 6.022,-21.093 8.887,-25.39c4.492,-6.836 11.556,-10.254 21.191,-10.254c9.31,0 17.35,3.532 24.121,10.596c6.771,7.063 10.156,17.822 10.156,32.275c0,15.56 -3.531,26.579 -10.595,33.057c-7.064,6.477 -15.804,9.944 -26.221,10.4l0,-16.895Z" style="fill-rule:nonzero;"/><path d="M977.03,1068.69l0,-17.578l143.457,0l0,17.578l-143.457,0Z" style="fill-rule:nonzero;"/><path d="M1092.65,1011.27c5.078,0 9.082,-1.856 12.011,-5.567c2.93,-3.711 4.395,-8.105 4.395,-13.183c0,-6.185 -1.432,-12.175 -4.297,-17.969c-4.753,-9.766 -12.533,-14.649 -23.34,-14.649l-14.16,0c1.367,2.149 2.506,4.916 3.418,8.301c0.911,3.386 1.562,6.706 1.953,9.961l1.367,10.645c0.847,6.38 2.181,11.165 4.004,14.355c3.06,5.404 7.943,8.106 14.649,8.106Zm-35.547,-42.579c-0.521,-4.036 -2.214,-6.738 -5.078,-8.105c-1.563,-0.781 -3.809,-1.172 -6.739,-1.172c-5.989,0 -10.335,2.132 -13.037,6.397c-2.702,4.264 -4.053,10.367 -4.053,18.31c0,9.18 2.474,15.69 7.422,19.531c2.735,2.149 6.804,3.549 12.207,4.2l0,16.406c-12.89,-0.326 -21.858,-4.509 -26.904,-12.549c-5.046,-8.04 -7.568,-17.367 -7.568,-27.979c0,-12.304 2.343,-22.298 7.031,-29.98c4.687,-7.617 11.979,-11.426 21.875,-11.426l60.254,0c1.823,0 3.288,-0.374 4.394,-1.123c1.107,-0.749 1.661,-2.327 1.661,-4.736c0,-0.781 -0.049,-1.66 -0.147,-2.637c-0.098,-0.976 -0.244,-2.018 -0.439,-3.125l12.988,0c0.781,2.735 1.269,4.818 1.465,6.25c0.195,1.432 0.293,3.386 0.293,5.86c0,6.054 -2.149,10.449 -6.446,13.183c-2.278,1.432 -5.501,2.442 -9.668,3.027c4.688,3.581 8.757,8.724 12.207,15.43c3.451,6.706 5.176,14.095 5.176,22.168c0,9.701 -2.946,17.627 -8.838,23.779c-5.892,6.153 -13.265,9.229 -22.119,9.229c-9.7,0 -17.22,-3.027 -22.558,-9.082c-5.339,-6.055 -8.627,-13.998 -9.864,-23.828l-3.515,-28.028Z" style="fill-rule:nonzero;"/><path d="M986.698,910l0,-17.773l29.199,0l0,-16.7l14.355,0l0,16.7l68.262,0c3.646,0 6.087,-1.237 7.324,-3.711c0.716,-1.368 1.074,-3.646 1.074,-6.836c0,-0.847 -0.016,-1.758 -0.048,-2.735c-0.033,-0.976 -0.114,-2.116 -0.245,-3.418l13.868,0c0.586,2.019 1.009,4.118 1.269,6.299c0.261,2.181 0.391,4.541 0.391,7.08c0,8.203 -2.1,13.77 -6.299,16.699c-4.199,2.93 -9.652,4.395 -16.358,4.395l-69.238,0l0,14.16l-14.355,0l0,-14.16l-29.199,0Z" style="fill-rule:nonzero;"/><path d="M1016.38,857.949l0,-17.871l104.102,0l0,17.871l-104.102,0Zm-39.355,0l0,-17.871l19.921,0l0,17.871l-19.921,0Z" style="fill-rule:nonzero;"/><path d="M1015.9,804.922l85.156,-27.93l-85.156,-29.199l0,-19.238l104.59,39.453l0,18.75l-104.59,38.574l0,-20.41Z" style="fill-rule:nonzero;"/><path d="M1013.55,669.961c0,-7.422 1.742,-14.616 5.225,-21.582c3.483,-6.966 7.991,-12.272 13.525,-15.918c5.273,-3.516 11.426,-5.859 18.457,-7.031c4.818,-1.042 12.5,-1.563 23.047,-1.563l0,76.66c10.612,-0.325 19.124,-2.832 25.537,-7.519c6.413,-4.688 9.619,-11.947 9.619,-21.778c0,-9.179 -3.027,-16.503 -9.082,-21.972c-3.516,-3.125 -7.585,-5.339 -12.207,-6.641l0,-17.285c3.841,0.456 8.122,1.969 12.842,4.541c4.72,2.572 8.577,5.453 11.572,8.643c5.208,5.338 8.724,11.946 10.547,19.824c1.042,4.232 1.563,9.017 1.563,14.355c0,13.021 -4.737,24.056 -14.209,33.106c-9.473,9.049 -22.738,13.574 -39.795,13.574c-16.797,0 -30.437,-4.557 -40.918,-13.672c-10.482,-9.114 -15.723,-21.029 -15.723,-35.742Zm46.289,-28.027c-7.617,0.716 -13.704,2.376 -18.262,4.98c-8.463,4.818 -12.695,12.858 -12.695,24.121c0,8.073 2.913,14.844 8.74,20.313c5.827,5.468 13.233,8.366 22.217,8.691l0,-58.105Z" style="fill-rule:nonzero;"/><path d="M1074.2,531.68c8.138,-0.456 14.746,-2.377 19.824,-5.762c9.505,-6.445 14.258,-17.806 14.258,-34.082c0,-7.292 -1.042,-13.932 -3.125,-19.922c-4.037,-11.588 -11.263,-17.383 -21.68,-17.383c-7.813,0 -13.379,2.442 -16.699,7.324c-3.256,4.948 -6.088,12.696 -8.496,23.243l-4.395,19.433c-2.865,12.696 -6.022,21.68 -9.473,26.953c-5.989,9.115 -14.941,13.672 -26.855,13.672c-12.891,0 -23.47,-4.459 -31.738,-13.379c-8.269,-8.919 -12.403,-21.549 -12.403,-37.89c0,-15.039 3.63,-27.816 10.889,-38.33c7.259,-10.515 18.864,-15.772 34.814,-15.772l0,18.262c-7.682,0.976 -13.574,3.06 -17.675,6.25c-7.487,5.924 -11.231,15.983 -11.231,30.176c0,11.458 2.409,19.694 7.227,24.707c4.817,5.013 10.416,7.519 16.797,7.519c7.031,0 12.174,-2.929 15.429,-8.789c2.084,-3.841 4.688,-12.532 7.813,-26.074l4.59,-20.117c2.213,-9.701 5.24,-17.188 9.082,-22.461c6.705,-9.115 16.438,-13.672 29.199,-13.672c15.885,0 27.246,5.778 34.082,17.334c6.836,11.556 10.254,24.984 10.254,40.283c0,17.839 -4.557,31.804 -13.672,41.895c-9.05,10.091 -21.322,15.039 -36.816,14.843l0,-18.261Z" style="fill-rule:nonzero;"/><path d="M986.698,409.805l0,-17.774l29.199,0l0,-16.699l14.355,0l0,16.699l68.262,0c3.646,0 6.087,-1.237 7.324,-3.711c0.716,-1.367 1.074,-3.646 1.074,-6.836c0,-0.846 -0.016,-1.757 -0.048,-2.734c-0.033,-0.977 -0.114,-2.116 -0.245,-3.418l13.868,0c0.586,2.018 1.009,4.118 1.269,6.299c0.261,2.181 0.391,4.541 0.391,7.08c0,8.203 -2.1,13.769 -6.299,16.699c-4.199,2.93 -9.652,4.395 -16.358,4.395l-69.238,0l0,14.16l-14.355,0l0,-14.16l-29.199,0Z" style="fill-rule:nonzero;"/><path d="M1092.65,344.277c5.078,0 9.082,-1.855 12.011,-5.566c2.93,-3.711 4.395,-8.106 4.395,-13.184c0,-6.185 -1.432,-12.174 -4.297,-17.968c-4.753,-9.766 -12.533,-14.649 -23.34,-14.649l-14.16,0c1.367,2.149 2.506,4.916 3.418,8.301c0.911,3.385 1.562,6.706 1.953,9.961l1.367,10.644c0.847,6.381 2.181,11.166 4.004,14.356c3.06,5.404 7.943,8.105 14.649,8.105Zm-35.547,-42.578c-0.521,-4.036 -2.214,-6.738 -5.078,-8.105c-1.563,-0.781 -3.809,-1.172 -6.739,-1.172c-5.989,0 -10.335,2.132 -13.037,6.396c-2.702,4.265 -4.053,10.368 -4.053,18.311c0,9.18 2.474,15.69 7.422,19.531c2.735,2.149 6.804,3.548 12.207,4.199l0,16.407c-12.89,-0.326 -21.858,-4.509 -26.904,-12.549c-5.046,-8.041 -7.568,-17.367 -7.568,-27.979c0,-12.304 2.343,-22.298 7.031,-29.98c4.687,-7.617 11.979,-11.426 21.875,-11.426l60.254,0c1.823,0 3.288,-0.374 4.394,-1.123c1.107,-0.749 1.661,-2.327 1.661,-4.736c0,-0.782 -0.049,-1.66 -0.147,-2.637c-0.098,-0.977 -0.244,-2.018 -0.439,-3.125l12.988,0c0.781,2.734 1.269,4.818 1.465,6.25c0.195,1.432 0.293,3.385 0.293,5.859c0,6.055 -2.149,10.45 -6.446,13.184c-2.278,1.432 -5.501,2.441 -9.668,3.027c4.688,3.581 8.757,8.724 12.207,15.43c3.451,6.706 5.176,14.095 5.176,22.168c0,9.7 -2.946,17.627 -8.838,23.779c-5.892,6.153 -13.265,9.229 -22.119,9.229c-9.7,0 -17.22,-3.028 -22.558,-9.082c-5.339,-6.055 -8.627,-13.998 -9.864,-23.828l-3.515,-28.028Z" style="fill-rule:nonzero;"/><path d="M1012.87,206.191c0,-11.783 2.865,-21.37 8.594,-28.759c5.729,-7.39 15.593,-11.833 29.59,-13.33l0,17.089c-6.445,1.042 -11.8,3.418 -16.064,7.129c-4.265,3.711 -6.397,9.668 -6.397,17.871c0,11.198 5.469,19.206 16.406,24.024c7.097,3.125 15.853,4.687 26.27,4.687c10.482,0 19.303,-2.213 26.465,-6.64c7.161,-4.427 10.742,-11.393 10.742,-20.899c0,-7.291 -2.23,-13.069 -6.69,-17.334c-4.459,-4.264 -10.563,-7.21 -18.31,-8.838l0,-17.089c13.867,1.953 24.007,6.836 30.42,14.648c6.413,7.813 9.619,17.806 9.619,29.98c0,13.672 -4.997,24.577 -14.99,32.715c-9.994,8.138 -22.478,12.207 -37.451,12.207c-18.36,0 -32.65,-4.459 -42.872,-13.379c-10.221,-8.919 -15.332,-20.279 -15.332,-34.082Z" style="fill-rule:nonzero;"/><path d="M977.03,146.914l0,-16.894l83.3,0l-44.433,-45.118l0,-22.461l39.16,40.039l65.43,-42.285l0,22.461l-52.735,32.617l13.477,14.747l39.258,0l0,16.894l-143.457,0Z" style="fill-rule:nonzero;"/><path d="M3252.08,64.583c0,-34.494 -28.005,-62.5 -62.5,-62.5l-708.333,0c-34.495,0 -62.5,28.006 -62.5,62.5l0,291.667c0,34.495 28.005,62.5 62.5,62.5l708.333,0c34.495,0 62.5,-28.005 62.5,-62.5l0,-291.667Z" style="fill:#fff;stroke:#000;stroke-width:4.17px;"/><rect x="2643.94" y="78.023" width="14.722" height="107.593" style="fill-rule:nonzero;"/><path d="M2680.56,107.173l12.524,0l0,11.133c3.711,-4.59 7.642,-7.886 11.792,-9.888c4.151,-2.002 8.765,-3.003 13.843,-3.003c11.133,0 18.652,3.882 22.559,11.646c2.148,4.248 3.222,10.327 3.222,18.237l0,50.317l-13.403,0l0,-49.438c0,-4.785 -0.708,-8.643 -2.124,-11.572c-2.344,-4.883 -6.592,-7.325 -12.744,-7.325c-3.125,0 -5.689,0.318 -7.691,0.953c-3.613,1.074 -6.787,3.222 -9.521,6.445c-2.197,2.588 -3.626,5.261 -4.285,8.02c-0.659,2.759 -0.989,6.702 -0.989,11.828l0,41.089l-13.183,0l0,-78.442Z" style="fill-rule:nonzero;"/><path d="M2766.62,85.274l13.331,0l0,21.899l12.524,0l0,10.767l-12.524,0l0,51.196c0,2.734 0.927,4.565 2.783,5.493c1.025,0.537 2.734,0.806 5.127,0.806c0.634,0 1.318,-0.013 2.05,-0.037c0.733,-0.024 1.587,-0.085 2.564,-0.183l0,10.4c-1.514,0.44 -3.088,0.757 -4.724,0.953c-1.636,0.195 -3.406,0.292 -5.31,0.292c-6.153,0 -10.327,-1.574 -12.525,-4.724c-2.197,-3.149 -3.296,-7.238 -3.296,-12.268l0,-51.928l-10.62,0l0,-10.767l10.62,0l0,-21.899Z" style="fill-rule:nonzero;"/><path d="M2838.33,105.415c5.566,0 10.961,1.306 16.186,3.919c5.225,2.612 9.204,5.993 11.939,10.144c2.636,3.955 4.394,8.569 5.273,13.842c0.781,3.614 1.172,9.375 1.172,17.286l-57.495,0c0.244,7.959 2.124,14.343 5.639,19.152c3.516,4.81 8.96,7.215 16.333,7.215c6.885,0 12.378,-2.271 16.48,-6.812c2.344,-2.636 4.004,-5.688 4.98,-9.155l12.964,0c-0.342,2.881 -1.477,6.091 -3.406,9.631c-1.928,3.54 -4.089,6.433 -6.481,8.68c-4.004,3.906 -8.96,6.543 -14.869,7.91c-3.173,0.781 -6.762,1.172 -10.766,1.172c-9.766,0 -18.042,-3.553 -24.829,-10.657c-6.787,-7.105 -10.181,-17.053 -10.181,-29.846c0,-12.598 3.418,-22.828 10.254,-30.689c6.836,-7.861 15.771,-11.792 26.807,-11.792Zm21.02,34.717c-0.537,-5.713 -1.782,-10.278 -3.735,-13.696c-3.614,-6.348 -9.644,-9.522 -18.091,-9.522c-6.055,0 -11.133,2.185 -15.234,6.555c-4.102,4.37 -6.275,9.925 -6.519,16.663l43.579,0Z" style="fill-rule:nonzero;"/><path d="M2889.08,107.173l12.525,0l0,11.133c3.711,-4.59 7.641,-7.886 11.792,-9.888c4.15,-2.002 8.764,-3.003 13.843,-3.003c11.132,0 18.652,3.882 22.558,11.646c2.149,4.248 3.223,10.327 3.223,18.237l0,50.317l-13.403,0l0,-49.438c0,-4.785 -0.708,-8.643 -2.125,-11.572c-2.343,-4.883 -6.591,-7.325 -12.744,-7.325c-3.125,0 -5.688,0.318 -7.69,0.953c-3.613,1.074 -6.787,3.222 -9.522,6.445c-2.197,2.588 -3.625,5.261 -4.284,8.02c-0.659,2.759 -0.989,6.702 -0.989,11.828l0,41.089l-13.184,0l0,-78.442Z" style="fill-rule:nonzero;"/><path d="M2975.14,85.274l13.33,0l0,21.899l12.524,0l0,10.767l-12.524,0l0,51.196c0,2.734 0.928,4.565 2.783,5.493c1.026,0.537 2.735,0.806 5.127,0.806c0.635,0 1.319,-0.013 2.051,-0.037c0.732,-0.024 1.587,-0.085 2.563,-0.183l0,10.4c-1.513,0.44 -3.088,0.757 -4.724,0.953c-1.635,0.195 -3.405,0.292 -5.31,0.292c-6.152,0 -10.327,-1.574 -12.524,-4.724c-2.197,-3.149 -3.296,-7.238 -3.296,-12.268l0,-51.928l-10.62,0l0,-10.767l10.62,0l0,-21.899Z" style="fill-rule:nonzero;"/><path d="M3252.08,543.333c0,-36.564 -29.685,-66.25 -66.25,-66.25l-700.833,0c-36.564,0 -66.25,29.686 -66.25,66.25l0,309.167c0,36.564 29.686,66.25 66.25,66.25l700.833,0c36.565,0 66.25,-29.686 66.25,-66.25l0,-309.167Z" style="fill:#fff;stroke:#000;stroke-width:4.17px;"/><g transform="matrix(17.5989,0,0,17.5989,2837.9,655.298)"><path d="M-4.374,-6.114l0,0.729l-2.06,0l0,5.385l-0.841,0l0,-5.385l-2.06,0l0,-0.729l4.961,0Z" style="fill-rule:nonzero;"/><path d="M-1.86,-4.557c0.316,0 0.623,0.074 0.919,0.223c0.297,0.148 0.523,0.34 0.679,0.576c0.15,0.225 0.25,0.487 0.299,0.787c0.045,0.205 0.067,0.532 0.067,0.982l-3.267,0c0.014,0.452 0.121,0.815 0.321,1.088c0.199,0.273 0.509,0.41 0.928,0.41c0.391,0 0.703,-0.129 0.936,-0.387c0.133,-0.15 0.227,-0.323 0.283,-0.52l0.737,0c-0.02,0.163 -0.084,0.346 -0.194,0.547c-0.109,0.201 -0.232,0.365 -0.368,0.493c-0.228,0.222 -0.509,0.372 -0.845,0.45c-0.18,0.044 -0.384,0.066 -0.612,0.066c-0.555,0 -1.025,-0.202 -1.411,-0.605c-0.385,-0.404 -0.578,-0.969 -0.578,-1.696c0,-0.716 0.194,-1.297 0.582,-1.744c0.389,-0.447 0.897,-0.67 1.524,-0.67Zm1.194,1.973c-0.03,-0.325 -0.101,-0.584 -0.212,-0.779c-0.205,-0.36 -0.548,-0.541 -1.028,-0.541c-0.344,0 -0.633,0.124 -0.866,0.373c-0.233,0.248 -0.356,0.564 -0.37,0.947l2.476,0Z" style="fill-rule:nonzero;"/><path d="M0.599,-4.457l0.97,0l1.024,1.569l1.036,-1.569l0.911,0.021l-1.502,2.151l1.569,2.285l-0.957,0l-1.107,-1.673l-1.074,1.673l-0.949,0l1.569,-2.285l-1.49,-2.172Z" style="fill-rule:nonzero;"/><path d="M5.435,-5.702l0.758,0l0,1.245l0.711,0l0,0.612l-0.711,0l0,2.909c0,0.155 0.052,0.259 0.158,0.312c0.058,0.03 0.155,0.046 0.291,0.046c0.036,0 0.075,-0.001 0.117,-0.003c0.041,-0.001 0.09,-0.004 0.145,-0.01l0,0.591c-0.086,0.025 -0.175,0.043 -0.268,0.054c-0.093,0.011 -0.194,0.017 -0.302,0.017c-0.349,0 -0.587,-0.09 -0.711,-0.269c-0.125,-0.179 -0.188,-0.411 -0.188,-0.697l0,-2.95l-0.603,0l0,-0.612l0.603,0l0,-1.245Z" style="fill-rule:nonzero;"/><path d="M9.043,-6.114l0.633,0l-1.939,6.114l-0.633,0l1.939,-6.114Z" style="fill-rule:nonzero;"/><path d="M-22.095,2.41l0.828,0l0,5.385l3.097,0l0,0.728l-3.925,0l0,-6.113Z" style="fill-rule:nonzero;"/><path d="M-15.598,3.966c0.316,0 0.623,0.074 0.92,0.223c0.296,0.148 0.523,0.34 0.678,0.576c0.15,0.225 0.25,0.487 0.3,0.787c0.044,0.205 0.066,0.532 0.066,0.982l-3.267,0c0.014,0.452 0.121,0.815 0.321,1.088c0.199,0.274 0.509,0.41 0.928,0.41c0.391,0 0.703,-0.129 0.936,-0.387c0.133,-0.15 0.228,-0.323 0.283,-0.52l0.737,0c-0.02,0.164 -0.084,0.346 -0.194,0.547c-0.109,0.201 -0.232,0.366 -0.368,0.493c-0.228,0.222 -0.509,0.372 -0.845,0.45c-0.18,0.044 -0.384,0.066 -0.612,0.066c-0.555,0 -1.025,-0.201 -1.411,-0.605c-0.385,-0.404 -0.578,-0.969 -0.578,-1.696c0,-0.716 0.194,-1.297 0.583,-1.744c0.388,-0.447 0.896,-0.67 1.523,-0.67Zm1.194,1.973c-0.03,-0.325 -0.101,-0.584 -0.212,-0.778c-0.205,-0.361 -0.548,-0.541 -1.028,-0.541c-0.344,0 -0.633,0.124 -0.866,0.372c-0.233,0.248 -0.356,0.564 -0.37,0.947l2.476,0Z" style="fill-rule:nonzero;"/><path d="M-11.141,3.987c0.35,0 0.655,0.086 0.916,0.258c0.141,0.097 0.285,0.239 0.432,0.424l0,-0.561l0.691,0l0,4.053c0,0.566 -0.083,1.013 -0.249,1.34c-0.311,0.605 -0.898,0.908 -1.761,0.908c-0.48,0 -0.884,-0.108 -1.211,-0.323c-0.327,-0.215 -0.51,-0.551 -0.549,-1.009l0.761,0c0.036,0.2 0.109,0.354 0.217,0.462c0.169,0.166 0.435,0.249 0.799,0.249c0.574,0 0.95,-0.202 1.128,-0.607c0.105,-0.239 0.154,-0.665 0.145,-1.278c-0.15,0.228 -0.33,0.397 -0.541,0.508c-0.211,0.111 -0.489,0.166 -0.836,0.166c-0.483,0 -0.905,-0.171 -1.268,-0.514c-0.362,-0.342 -0.543,-0.909 -0.543,-1.7c0,-0.746 0.183,-1.329 0.548,-1.748c0.364,-0.419 0.805,-0.628 1.321,-0.628Zm1.348,2.289c0,-0.552 -0.113,-0.961 -0.341,-1.228c-0.227,-0.266 -0.517,-0.399 -0.87,-0.399c-0.527,0 -0.888,0.247 -1.082,0.74c-0.102,0.264 -0.154,0.609 -0.154,1.037c0,0.502 0.102,0.884 0.306,1.146c0.204,0.262 0.478,0.394 0.822,0.394c0.538,0 0.917,-0.243 1.136,-0.729c0.122,-0.274 0.183,-0.595 0.183,-0.961Z" style="fill-rule:nonzero;"/><path d="M-7.4,7.337c0,0.217 0.079,0.387 0.238,0.512c0.158,0.125 0.345,0.187 0.561,0.187c0.264,0 0.519,-0.061 0.766,-0.183c0.416,-0.202 0.624,-0.534 0.624,-0.994l0,-0.604c-0.091,0.058 -0.209,0.107 -0.353,0.146c-0.145,0.039 -0.286,0.066 -0.425,0.083l-0.453,0.058c-0.272,0.036 -0.476,0.093 -0.612,0.171c-0.23,0.13 -0.346,0.338 -0.346,0.624Zm1.815,-1.515c0.172,-0.022 0.287,-0.094 0.345,-0.216c0.034,-0.067 0.05,-0.162 0.05,-0.287c0,-0.256 -0.091,-0.441 -0.272,-0.556c-0.182,-0.115 -0.442,-0.173 -0.781,-0.173c-0.391,0 -0.668,0.106 -0.832,0.317c-0.092,0.116 -0.151,0.29 -0.179,0.52l-0.699,0c0.014,-0.549 0.192,-0.932 0.535,-1.147c0.342,-0.215 0.74,-0.322 1.192,-0.322c0.524,0 0.95,0.1 1.278,0.299c0.324,0.2 0.487,0.511 0.487,0.933l0,2.567c0,0.078 0.016,0.141 0.047,0.188c0.032,0.047 0.1,0.071 0.202,0.071c0.034,0 0.071,-0.003 0.113,-0.007c0.041,-0.004 0.086,-0.01 0.133,-0.018l0,0.553c-0.117,0.033 -0.205,0.054 -0.266,0.062c-0.062,0.009 -0.145,0.013 -0.25,0.013c-0.258,0 -0.446,-0.092 -0.562,-0.275c-0.061,-0.097 -0.104,-0.234 -0.129,-0.412c-0.153,0.2 -0.372,0.373 -0.658,0.521c-0.285,0.147 -0.6,0.22 -0.944,0.22c-0.414,0 -0.752,-0.125 -1.014,-0.377c-0.262,-0.251 -0.393,-0.565 -0.393,-0.942c0,-0.414 0.129,-0.734 0.387,-0.962c0.258,-0.227 0.597,-0.367 1.016,-0.42l1.194,-0.15Z" style="fill-rule:nonzero;"/><rect x="-3.213" y="2.41" width="0.749" height="6.114" style="fill-rule:nonzero;"/><path d="M1.207,2.41l2.751,0c0.544,0 0.982,0.153 1.315,0.46c0.333,0.306 0.499,0.737 0.499,1.292c0,0.477 -0.148,0.892 -0.445,1.246c-0.297,0.354 -0.753,0.531 -1.369,0.531l-1.923,0l0,2.584l-0.828,0l0,-6.113Zm3.729,1.756c0,-0.45 -0.167,-0.755 -0.5,-0.916c-0.183,-0.086 -0.434,-0.129 -0.753,-0.129l-1.648,0l0,2.119l1.648,0c0.372,0 0.674,-0.079 0.905,-0.238c0.232,-0.158 0.348,-0.437 0.348,-0.836Z" style="fill-rule:nonzero;"/><path d="M6.734,4.066l0.711,0l0,0.77c0.059,-0.15 0.202,-0.332 0.429,-0.547c0.228,-0.215 0.49,-0.323 0.787,-0.323c0.013,0 0.037,0.002 0.07,0.004c0.034,0.003 0.091,0.009 0.171,0.017l0,0.791c-0.044,-0.009 -0.085,-0.014 -0.123,-0.017c-0.037,-0.003 -0.078,-0.004 -0.123,-0.004c-0.377,0 -0.667,0.121 -0.869,0.364c-0.203,0.243 -0.304,0.522 -0.304,0.839l0,2.563l-0.749,0l0,-4.457Z" style="fill-rule:nonzero;"/><path d="M11.32,8.04c0.497,0 0.837,-0.187 1.022,-0.563c0.184,-0.376 0.276,-0.795 0.276,-1.255c0,-0.416 -0.066,-0.755 -0.199,-1.016c-0.211,-0.41 -0.575,-0.616 -1.091,-0.616c-0.458,0 -0.79,0.175 -0.999,0.525c-0.208,0.349 -0.312,0.771 -0.312,1.265c0,0.474 0.104,0.87 0.312,1.186c0.209,0.316 0.539,0.474 0.991,0.474Zm0.029,-4.103c0.574,0 1.06,0.191 1.457,0.574c0.396,0.383 0.595,0.946 0.595,1.69c0,0.719 -0.175,1.312 -0.525,1.781c-0.349,0.469 -0.892,0.704 -1.627,0.704c-0.613,0 -1.1,-0.208 -1.461,-0.623c-0.36,-0.414 -0.541,-0.971 -0.541,-1.671c0,-0.749 0.19,-1.345 0.571,-1.789c0.38,-0.444 0.89,-0.666 1.531,-0.666Z" style="fill-rule:nonzero;"/><path d="M14.737,7.125c0.022,0.25 0.084,0.441 0.187,0.574c0.189,0.242 0.516,0.362 0.982,0.362c0.278,0 0.522,-0.06 0.733,-0.181c0.211,-0.12 0.316,-0.307 0.316,-0.559c0,-0.192 -0.085,-0.338 -0.254,-0.437c-0.108,-0.062 -0.322,-0.132 -0.641,-0.213l-0.595,-0.15c-0.38,-0.094 -0.66,-0.199 -0.841,-0.316c-0.321,-0.202 -0.482,-0.483 -0.482,-0.841c0,-0.421 0.152,-0.762 0.455,-1.023c0.304,-0.261 0.713,-0.392 1.226,-0.392c0.671,0 1.156,0.197 1.452,0.591c0.186,0.25 0.276,0.519 0.271,0.808l-0.708,0c-0.013,-0.169 -0.073,-0.323 -0.179,-0.462c-0.172,-0.197 -0.47,-0.296 -0.894,-0.296c-0.283,0 -0.498,0.055 -0.643,0.163c-0.146,0.108 -0.219,0.251 -0.219,0.428c0,0.195 0.096,0.35 0.287,0.466c0.111,0.07 0.275,0.131 0.491,0.184l0.496,0.12c0.538,0.131 0.899,0.257 1.082,0.379c0.291,0.191 0.437,0.492 0.437,0.903c0,0.397 -0.151,0.74 -0.452,1.028c-0.301,0.289 -0.759,0.433 -1.375,0.433c-0.663,0 -1.133,-0.151 -1.409,-0.452c-0.276,-0.301 -0.424,-0.673 -0.443,-1.117l0.72,0Z" style="fill-rule:nonzero;"/><path d="M20.409,3.966c0.317,0 0.623,0.074 0.92,0.223c0.297,0.148 0.523,0.34 0.678,0.576c0.15,0.225 0.25,0.487 0.3,0.787c0.044,0.205 0.067,0.532 0.067,0.982l-3.267,0c0.013,0.452 0.12,0.815 0.32,1.088c0.2,0.274 0.509,0.41 0.928,0.41c0.391,0 0.703,-0.129 0.937,-0.387c0.133,-0.15 0.227,-0.323 0.283,-0.52l0.736,0c-0.019,0.164 -0.084,0.346 -0.193,0.547c-0.11,0.201 -0.233,0.366 -0.369,0.493c-0.227,0.222 -0.509,0.372 -0.845,0.45c-0.18,0.044 -0.384,0.066 -0.611,0.066c-0.555,0 -1.025,-0.201 -1.411,-0.605c-0.386,-0.404 -0.579,-0.969 -0.579,-1.696c0,-0.716 0.195,-1.297 0.583,-1.744c0.388,-0.447 0.896,-0.67 1.523,-0.67Zm1.195,1.973c-0.031,-0.325 -0.102,-0.584 -0.213,-0.778c-0.205,-0.361 -0.548,-0.541 -1.028,-0.541c-0.344,0 -0.632,0.124 -0.865,0.372c-0.233,0.248 -0.357,0.564 -0.371,0.947l2.477,0Z" style="fill-rule:nonzero;"/></g><path d="M3252.08,1075.42c0,-49.673 -40.327,-90 -90,-90l-653.333,0c-49.672,0 -90,40.327 -90,90l0,420c0,49.672 40.328,90 90,90l653.333,0c49.673,0 90,-40.328 90,-90l0,-420Z" style="fill:#fff;stroke:#000;stroke-width:4.17px;"/><g transform="matrix(10.451,0,0,10.451,2848.72,1261.6)"><path d="M-34.281,-10.295l7.506,0l0,1.261l-6.146,0l0,3.126l5.684,0l0,1.191l-5.684,0l0,3.491l6.251,0l0,1.226l-7.611,0l0,-10.295Z" style="fill-rule:nonzero;"/><path d="M-25.724,-7.506l1.633,0l1.724,2.642l1.745,-2.642l1.535,0.035l-2.53,3.624l2.642,3.847l-1.612,0l-1.864,-2.817l-1.808,2.817l-1.598,0l2.642,-3.847l-2.509,-3.659Z" style="fill-rule:nonzero;"/><path d="M-14.707,-7.674c0.533,0 1.049,0.125 1.549,0.375c0.5,0.25 0.881,0.573 1.142,0.971c0.253,0.378 0.421,0.82 0.505,1.324c0.075,0.346 0.112,0.897 0.112,1.654l-5.501,0c0.023,0.762 0.203,1.373 0.539,1.833c0.337,0.46 0.858,0.69 1.563,0.69c0.659,0 1.185,-0.217 1.577,-0.652c0.224,-0.252 0.383,-0.544 0.477,-0.876l1.24,0c-0.033,0.276 -0.141,0.583 -0.326,0.922c-0.184,0.339 -0.391,0.615 -0.62,0.83c-0.383,0.374 -0.857,0.626 -1.423,0.757c-0.303,0.075 -0.647,0.112 -1.03,0.112c-0.934,0 -1.726,-0.34 -2.376,-1.019c-0.649,-0.68 -0.974,-1.632 -0.974,-2.856c0,-1.206 0.327,-2.184 0.981,-2.937c0.654,-0.752 1.509,-1.128 2.565,-1.128Zm2.012,3.322c-0.052,-0.547 -0.171,-0.984 -0.358,-1.311c-0.345,-0.607 -0.922,-0.911 -1.731,-0.911c-0.579,0 -1.065,0.209 -1.457,0.628c-0.393,0.418 -0.601,0.949 -0.624,1.594l4.17,0Z" style="fill-rule:nonzero;"/><path d="M-6.956,-7.723c0.846,0 1.534,0.206 2.064,0.617c0.531,0.411 0.849,1.119 0.957,2.123l-1.227,0c-0.074,-0.462 -0.245,-0.847 -0.511,-1.153c-0.266,-0.306 -0.694,-0.459 -1.283,-0.459c-0.803,0 -1.378,0.393 -1.724,1.178c-0.224,0.509 -0.336,1.137 -0.336,1.885c0,0.752 0.159,1.385 0.477,1.899c0.317,0.514 0.817,0.771 1.499,0.771c0.524,0 0.938,-0.16 1.244,-0.48c0.306,-0.32 0.518,-0.758 0.634,-1.314l1.227,0c-0.14,0.995 -0.491,1.723 -1.051,2.183c-0.561,0.46 -1.278,0.69 -2.152,0.69c-0.981,0 -1.764,-0.358 -2.348,-1.076c-0.584,-0.717 -0.876,-1.613 -0.876,-2.687c0,-1.318 0.32,-2.343 0.961,-3.077c0.64,-0.733 1.455,-1.1 2.445,-1.1Z" style="fill-rule:nonzero;"/><path d="M-1.412,-7.506l0,4.983c0,0.383 0.061,0.696 0.182,0.939c0.224,0.449 0.642,0.673 1.255,0.673c0.878,0 1.476,-0.393 1.794,-1.177c0.172,-0.421 0.259,-0.998 0.259,-1.731l0,-3.687l1.261,0l0,7.506l-1.191,0l0.014,-1.107c-0.164,0.285 -0.367,0.525 -0.61,0.722c-0.481,0.392 -1.065,0.588 -1.752,0.588c-1.07,0 -1.798,-0.357 -2.186,-1.072c-0.211,-0.383 -0.316,-0.895 -0.316,-1.535l0,-5.102l1.29,0Z" style="fill-rule:nonzero;"/><path d="M5.561,-9.601l1.275,0l0,2.095l1.199,0l0,1.03l-1.199,0l0,4.899c0,0.262 0.089,0.437 0.267,0.526c0.098,0.051 0.261,0.077 0.49,0.077c0.061,0 0.127,-0.001 0.197,-0.004c0.07,-0.002 0.151,-0.008 0.245,-0.017l0,0.995c-0.145,0.042 -0.296,0.072 -0.452,0.091c-0.157,0.019 -0.326,0.028 -0.508,0.028c-0.589,0 -0.988,-0.151 -1.199,-0.452c-0.21,-0.301 -0.315,-0.693 -0.315,-1.174l0,-4.969l-1.016,0l0,-1.03l1.016,0l0,-2.095Z" style="fill-rule:nonzero;"/><path d="M10.263,-1.997c0,0.364 0.134,0.651 0.4,0.862c0.266,0.21 0.582,0.315 0.946,0.315c0.444,0 0.874,-0.103 1.29,-0.308c0.7,-0.341 1.051,-0.9 1.051,-1.675l0,-1.016c-0.154,0.098 -0.353,0.179 -0.596,0.245c-0.243,0.065 -0.481,0.112 -0.715,0.14l-0.764,0.098c-0.458,0.061 -0.801,0.157 -1.03,0.287c-0.388,0.22 -0.582,0.57 -0.582,1.052Zm3.056,-2.551c0.29,-0.038 0.484,-0.159 0.582,-0.365c0.056,-0.112 0.084,-0.273 0.084,-0.483c0,-0.43 -0.153,-0.742 -0.459,-0.936c-0.306,-0.194 -0.744,-0.291 -1.314,-0.291c-0.659,0 -1.126,0.178 -1.402,0.533c-0.154,0.196 -0.255,0.488 -0.301,0.876l-1.178,0c0.024,-0.925 0.324,-1.569 0.901,-1.931c0.577,-0.362 1.246,-0.543 2.008,-0.543c0.883,0 1.6,0.168 2.151,0.505c0.547,0.336 0.82,0.859 0.82,1.569l0,4.324c0,0.131 0.027,0.236 0.081,0.316c0.054,0.079 0.167,0.119 0.34,0.119c0.056,0 0.119,-0.004 0.189,-0.011c0.07,-0.007 0.145,-0.017 0.224,-0.031l0,0.932c-0.196,0.056 -0.346,0.091 -0.448,0.105c-0.103,0.014 -0.243,0.021 -0.421,0.021c-0.434,0 -0.75,-0.154 -0.946,-0.462c-0.103,-0.164 -0.175,-0.395 -0.217,-0.694c-0.257,0.336 -0.626,0.628 -1.107,0.876c-0.482,0.247 -1.012,0.371 -1.591,0.371c-0.696,0 -1.265,-0.211 -1.707,-0.634c-0.441,-0.423 -0.662,-0.952 -0.662,-1.587c0,-0.696 0.217,-1.236 0.652,-1.619c0.434,-0.383 1.004,-0.619 1.71,-0.708l2.011,-0.252Z" style="fill-rule:nonzero;"/><path d="M17.181,-10.33l1.226,0l0,3.735c0.276,-0.359 0.605,-0.634 0.988,-0.823c0.383,-0.189 0.799,-0.284 1.248,-0.284c0.934,0 1.692,0.321 2.274,0.964c0.581,0.642 0.872,1.589 0.872,2.841c0,1.187 -0.287,2.173 -0.862,2.958c-0.574,0.785 -1.371,1.177 -2.39,1.177c-0.57,0 -1.051,-0.138 -1.443,-0.413c-0.234,-0.164 -0.484,-0.425 -0.75,-0.785l0,0.96l-1.163,0l0,-10.33Zm3.279,9.454c0.683,0 1.193,-0.271 1.532,-0.813c0.338,-0.542 0.508,-1.257 0.508,-2.144c0,-0.79 -0.17,-1.444 -0.508,-1.963c-0.339,-0.518 -0.838,-0.778 -1.497,-0.778c-0.574,0 -1.078,0.213 -1.51,0.638c-0.432,0.425 -0.648,1.126 -0.648,2.103c0,0.705 0.089,1.277 0.266,1.717c0.332,0.826 0.951,1.24 1.857,1.24Z" style="fill-rule:nonzero;"/><rect x="25.296" y="-10.295" width="1.261" height="10.295" style="fill-rule:nonzero;"/><path d="M31.575,-7.674c0.533,0 1.049,0.125 1.549,0.375c0.5,0.25 0.881,0.573 1.142,0.971c0.253,0.378 0.421,0.82 0.505,1.324c0.075,0.346 0.112,0.897 0.112,1.654l-5.501,0c0.023,0.762 0.203,1.373 0.539,1.833c0.337,0.46 0.858,0.69 1.563,0.69c0.659,0 1.185,-0.217 1.577,-0.652c0.224,-0.252 0.383,-0.544 0.477,-0.876l1.24,0c-0.033,0.276 -0.141,0.583 -0.326,0.922c-0.184,0.339 -0.391,0.615 -0.62,0.83c-0.383,0.374 -0.857,0.626 -1.423,0.757c-0.303,0.075 -0.647,0.112 -1.03,0.112c-0.934,0 -1.726,-0.34 -2.376,-1.019c-0.649,-0.68 -0.974,-1.632 -0.974,-2.856c0,-1.206 0.327,-2.184 0.981,-2.937c0.654,-0.752 1.509,-1.128 2.565,-1.128Zm2.012,3.322c-0.052,-0.547 -0.171,-0.984 -0.358,-1.311c-0.345,-0.607 -0.922,-0.911 -1.731,-0.911c-0.579,0 -1.065,0.209 -1.457,0.628c-0.393,0.418 -0.601,0.949 -0.624,1.594l4.17,0Z" style="fill-rule:nonzero;"/><path d="M-11.725,3.777c1.304,0 2.315,0.344 3.035,1.031c0.719,0.686 1.119,1.467 1.198,2.34l-1.359,0c-0.155,-0.663 -0.462,-1.189 -0.922,-1.576c-0.46,-0.388 -1.106,-0.582 -1.938,-0.582c-1.014,0 -1.832,0.356 -2.456,1.069c-0.624,0.712 -0.936,1.804 -0.936,3.276c0,1.205 0.282,2.183 0.845,2.933c0.563,0.75 1.403,1.125 2.519,1.125c1.028,0 1.811,-0.395 2.348,-1.185c0.285,-0.416 0.498,-0.962 0.638,-1.64l1.359,0c-0.121,1.084 -0.523,1.993 -1.205,2.727c-0.818,0.883 -1.92,1.324 -3.308,1.324c-1.196,0 -2.2,-0.362 -3.013,-1.086c-1.07,-0.958 -1.605,-2.437 -1.605,-4.436c0,-1.519 0.402,-2.764 1.205,-3.736c0.869,-1.056 2.068,-1.584 3.595,-1.584Z" style="fill-rule:nonzero;"/><path d="M-2.887,13.54c0.836,0 1.409,-0.317 1.72,-0.95c0.311,-0.633 0.466,-1.337 0.466,-2.113c0,-0.701 -0.112,-1.271 -0.336,-1.71c-0.355,-0.691 -0.967,-1.037 -1.836,-1.037c-0.771,0 -1.332,0.294 -1.682,0.883c-0.351,0.589 -0.526,1.299 -0.526,2.131c0,0.798 0.175,1.464 0.526,1.997c0.35,0.532 0.906,0.799 1.668,0.799Zm0.049,-6.91c0.967,0 1.784,0.322 2.453,0.967c0.668,0.645 1.002,1.593 1.002,2.845c0,1.21 -0.295,2.21 -0.883,3c-0.589,0.789 -1.502,1.184 -2.741,1.184c-1.032,0 -1.852,-0.349 -2.459,-1.048c-0.608,-0.698 -0.911,-1.636 -0.911,-2.813c0,-1.262 0.32,-2.266 0.96,-3.014c0.64,-0.747 1.499,-1.121 2.579,-1.121Z" style="fill-rule:nonzero;"/><path d="M2.915,10.687c0,0.804 0.171,1.477 0.512,2.019c0.341,0.542 0.888,0.813 1.64,0.813c0.584,0 1.064,-0.251 1.44,-0.754c0.376,-0.502 0.564,-1.223 0.564,-2.162c0,-0.948 -0.194,-1.65 -0.581,-2.106c-0.388,-0.455 -0.867,-0.683 -1.437,-0.683c-0.636,0 -1.151,0.243 -1.545,0.729c-0.395,0.486 -0.593,1.201 -0.593,2.144Zm1.9,-3.973c0.574,0 1.056,0.121 1.443,0.364c0.225,0.14 0.479,0.386 0.764,0.736l0,-3.791l1.213,0l0,10.33l-1.136,0l0,-1.044c-0.294,0.462 -0.642,0.796 -1.044,1.002c-0.402,0.205 -0.862,0.308 -1.381,0.308c-0.836,0 -1.56,-0.352 -2.172,-1.055c-0.612,-0.703 -0.918,-1.638 -0.918,-2.806c0,-1.094 0.279,-2.041 0.837,-2.842c0.559,-0.802 1.356,-1.202 2.394,-1.202Z" style="fill-rule:nonzero;"/><path d="M13.224,6.679c0.533,0 1.049,0.125 1.549,0.375c0.5,0.25 0.881,0.573 1.143,0.97c0.252,0.379 0.42,0.82 0.504,1.325c0.075,0.346 0.112,0.897 0.112,1.654l-5.501,0c0.023,0.761 0.203,1.372 0.54,1.832c0.336,0.461 0.857,0.691 1.562,0.691c0.659,0 1.185,-0.217 1.577,-0.652c0.224,-0.252 0.383,-0.544 0.477,-0.876l1.24,0c-0.033,0.276 -0.141,0.583 -0.326,0.922c-0.184,0.338 -0.391,0.615 -0.62,0.83c-0.383,0.374 -0.857,0.626 -1.423,0.757c-0.303,0.075 -0.647,0.112 -1.03,0.112c-0.934,0 -1.726,-0.34 -2.376,-1.02c-0.649,-0.679 -0.974,-1.631 -0.974,-2.855c0,-1.206 0.327,-2.185 0.981,-2.937c0.655,-0.752 1.51,-1.128 2.565,-1.128Zm2.012,3.322c-0.052,-0.547 -0.171,-0.984 -0.358,-1.311c-0.345,-0.607 -0.922,-0.911 -1.731,-0.911c-0.579,0 -1.065,0.209 -1.457,0.627c-0.393,0.418 -0.601,0.95 -0.624,1.595l4.17,0Z" style="fill-rule:nonzero;"/></g><path d="M1985.42,543.333c0,-36.564 -29.686,-66.25 -66.25,-66.25l-559.167,0c-36.564,0 -66.25,29.686 -66.25,66.25l0,309.167c0,36.564 29.686,66.25 66.25,66.25l559.167,0c36.564,0 66.25,-29.686 66.25,-66.25l0,-309.167Z" style="fill:#fff;stroke:#000;stroke-width:4.17px;"/><path d="M1591.41,665.819l0,12.818l-36.254,0l0,94.775l-14.795,0l0,-94.775l-36.255,0l0,-12.818l87.304,0Z" style="fill-rule:nonzero;"/><path d="M1635.64,693.212c5.566,0 10.962,1.306 16.186,3.918c5.225,2.613 9.204,5.994 11.939,10.144c2.636,3.955 4.394,8.57 5.273,13.843c0.781,3.613 1.172,9.375 1.172,17.285l-57.495,0c0.244,7.959 2.124,14.344 5.64,19.153c3.515,4.81 8.96,7.214 16.333,7.214c6.884,0 12.378,-2.27 16.479,-6.811c2.344,-2.637 4.004,-5.689 4.981,-9.155l12.963,0c-0.341,2.881 -1.477,6.091 -3.405,9.631c-1.929,3.54 -4.09,6.433 -6.482,8.679c-4.004,3.906 -8.96,6.543 -14.868,7.91c-3.174,0.782 -6.763,1.172 -10.767,1.172c-9.766,0 -18.042,-3.552 -24.829,-10.656c-6.787,-7.105 -10.181,-17.054 -10.181,-29.847c0,-12.597 3.418,-22.827 10.254,-30.688c6.836,-7.861 15.772,-11.792 26.807,-11.792Zm21.02,34.717c-0.537,-5.713 -1.782,-10.279 -3.735,-13.697c-3.613,-6.347 -9.644,-9.521 -18.091,-9.521c-6.055,0 -11.133,2.185 -15.234,6.555c-4.102,4.37 -6.275,9.924 -6.519,16.663l43.579,0Z" style="fill-rule:nonzero;"/><path d="M1678.93,694.97l17.065,0l18.018,27.612l18.237,-27.612l16.04,0.366l-26.44,37.866l27.612,40.21l-16.846,0l-19.482,-29.443l-18.896,29.443l-16.7,0l27.613,-40.21l-26.221,-38.232Z" style="fill-rule:nonzero;"/><path d="M1764.04,673.07l13.33,0l0,21.9l12.525,0l0,10.766l-12.525,0l0,51.197c0,2.734 0.928,4.565 2.784,5.493c1.025,0.537 2.734,0.805 5.127,0.805c0.634,0 1.318,-0.012 2.05,-0.036c0.733,-0.025 1.587,-0.086 2.564,-0.183l0,10.4c-1.514,0.439 -3.089,0.757 -4.724,0.952c-1.636,0.195 -3.406,0.293 -5.31,0.293c-6.153,0 -10.328,-1.575 -12.525,-4.724c-2.197,-3.149 -3.296,-7.239 -3.296,-12.268l0,-51.929l-10.62,0l0,-10.766l10.62,0l0,-21.9Z" style="fill-rule:nonzero;"/><path d="M1985.42,64.583c0,-34.494 -28.006,-62.5 -62.5,-62.5l-566.667,0c-34.495,0 -62.5,28.006 -62.5,62.5l0,291.667c0,34.495 28.005,62.5 62.5,62.5l566.667,0c34.494,0 62.5,-28.005 62.5,-62.5l0,-291.667Z" style="fill:#fff;stroke:#000;stroke-width:4.17px;"/><rect x="1474.79" y="70.423" width="14.722" height="107.593" style="fill-rule:nonzero;"/><path d="M1511.41,99.573l12.525,0l0,11.133c3.711,-4.59 7.642,-7.886 11.792,-9.888c4.15,-2.002 8.765,-3.003 13.843,-3.003c11.132,0 18.652,3.882 22.558,11.646c2.149,4.248 3.223,10.327 3.223,18.237l0,50.317l-13.403,0l0,-49.438c0,-4.785 -0.708,-8.643 -2.124,-11.572c-2.344,-4.883 -6.592,-7.324 -12.745,-7.324c-3.125,0 -5.688,0.317 -7.69,0.952c-3.613,1.074 -6.787,3.222 -9.521,6.445c-2.198,2.588 -3.626,5.261 -4.285,8.02c-0.659,2.759 -0.989,6.702 -0.989,11.829l0,41.088l-13.184,0l0,-78.442Z" style="fill-rule:nonzero;"/><path d="M1597.47,77.674l13.33,0l0,21.899l12.525,0l0,10.767l-12.525,0l0,51.196c0,2.734 0.928,4.565 2.783,5.493c1.026,0.537 2.735,0.806 5.127,0.806c0.635,0 1.319,-0.012 2.051,-0.037c0.732,-0.024 1.587,-0.085 2.564,-0.183l0,10.4c-1.514,0.44 -3.089,0.757 -4.725,0.953c-1.635,0.195 -3.405,0.293 -5.31,0.293c-6.152,0 -10.327,-1.575 -12.524,-4.725c-2.197,-3.149 -3.296,-7.238 -3.296,-12.268l0,-51.928l-10.62,0l0,-10.767l10.62,0l0,-21.899Z" style="fill-rule:nonzero;"/><path d="M1669.18,97.815c5.567,0 10.962,1.306 16.187,3.919c5.224,2.612 9.204,5.993 11.938,10.144c2.637,3.955 4.395,8.569 5.274,13.843c0.781,3.613 1.171,9.375 1.171,17.285l-57.495,0c0.244,7.959 2.124,14.343 5.64,19.153c3.516,4.809 8.96,7.214 16.333,7.214c6.885,0 12.378,-2.271 16.48,-6.812c2.343,-2.636 4.003,-5.688 4.98,-9.155l12.964,0c-0.342,2.881 -1.477,6.091 -3.406,9.631c-1.929,3.54 -4.089,6.434 -6.482,8.68c-4.004,3.906 -8.96,6.543 -14.868,7.91c-3.174,0.781 -6.763,1.172 -10.767,1.172c-9.765,0 -18.042,-3.553 -24.829,-10.657c-6.787,-7.105 -10.18,-17.053 -10.18,-29.846c0,-12.598 3.418,-22.827 10.254,-30.689c6.835,-7.861 15.771,-11.792 26.806,-11.792Zm21.021,34.717c-0.537,-5.713 -1.783,-10.278 -3.736,-13.696c-3.613,-6.348 -9.643,-9.522 -18.091,-9.522c-6.054,0 -11.132,2.185 -15.234,6.555c-4.101,4.371 -6.274,9.925 -6.518,16.663l43.579,0Z" style="fill-rule:nonzero;"/><path d="M1719.93,99.573l12.524,0l0,11.133c3.711,-4.59 7.642,-7.886 11.792,-9.888c4.151,-2.002 8.765,-3.003 13.843,-3.003c11.133,0 18.653,3.882 22.559,11.646c2.148,4.248 3.222,10.327 3.222,18.237l0,50.317l-13.403,0l0,-49.438c0,-4.785 -0.708,-8.643 -2.124,-11.572c-2.344,-4.883 -6.592,-7.324 -12.744,-7.324c-3.125,0 -5.689,0.317 -7.69,0.952c-3.614,1.074 -6.788,3.222 -9.522,6.445c-2.197,2.588 -3.625,5.261 -4.285,8.02c-0.659,2.759 -0.988,6.702 -0.988,11.829l0,41.088l-13.184,0l0,-78.442Z" style="fill-rule:nonzero;"/><path d="M1806,77.674l13.33,0l0,21.899l12.524,0l0,10.767l-12.524,0l0,51.196c0,2.734 0.927,4.565 2.783,5.493c1.025,0.537 2.734,0.806 5.127,0.806c0.635,0 1.318,-0.012 2.051,-0.037c0.732,-0.024 1.586,-0.085 2.563,-0.183l0,10.4c-1.514,0.44 -3.088,0.757 -4.724,0.953c-1.636,0.195 -3.406,0.293 -5.31,0.293c-6.152,0 -10.327,-1.575 -12.525,-4.725c-2.197,-3.149 -3.295,-7.238 -3.295,-12.268l0,-51.928l-10.621,0l0,-10.767l10.621,0l0,-21.899Z" style="fill-rule:nonzero;"/><path d="M2379,1581.25l0,-1575.04l-360.042,0l0,1575.04l360.042,0Z" style="fill:#fff;stroke:#000;stroke-width:4.17px;"/><path d="M2129.33,1393.29c0,-18.164 4.785,-32.259 14.356,-42.285c9.57,-10.026 20.442,-15.593 32.617,-16.699l0,18.945c-9.245,2.148 -16.569,6.429 -21.973,12.842c-5.404,6.412 -8.105,15.413 -8.105,27.002c0,14.127 4.964,25.537 14.892,34.228c9.929,8.692 25.147,13.037 45.654,13.037c16.797,0 30.42,-3.922 40.87,-11.767c10.449,-7.845 15.673,-19.548 15.673,-35.108c0,-14.323 -5.501,-25.228 -16.503,-32.715c-5.795,-3.971 -13.412,-6.933 -22.852,-8.886l0,-18.946c15.104,1.693 27.767,7.292 37.988,16.797c12.305,11.393 18.457,26.758 18.457,46.094c0,16.667 -5.045,30.664 -15.136,41.992c-13.347,14.909 -33.952,22.363 -61.817,22.363c-21.159,0 -38.509,-5.598 -52.051,-16.796c-14.713,-12.11 -22.07,-28.809 -22.07,-50.098Z" style="fill-rule:nonzero;"/><path d="M2265.36,1270.14c0,-11.653 -4.411,-19.645 -13.232,-23.974c-8.822,-4.33 -18.636,-6.494 -29.444,-6.494c-9.765,0 -17.708,1.562 -23.828,4.687c-9.635,4.948 -14.453,13.477 -14.453,25.586c0,10.742 4.102,18.555 12.305,23.438c8.203,4.882 18.099,7.324 29.687,7.324c11.133,0 20.411,-2.442 27.832,-7.324c7.422,-4.883 11.133,-12.631 11.133,-23.243Zm-96.289,-0.683c0,-13.477 4.492,-24.87 13.477,-34.18c8.984,-9.31 22.2,-13.965 39.648,-13.965c16.862,0 30.794,4.102 41.797,12.305c11.003,8.203 16.504,20.931 16.504,38.184c0,14.388 -4.867,25.813 -14.6,34.277c-9.733,8.463 -22.802,12.695 -39.209,12.695c-17.578,0 -31.575,-4.459 -41.992,-13.379c-10.417,-8.919 -15.625,-20.898 -15.625,-35.937Z" style="fill-rule:nonzero;"/><path d="M2172.1,1200.42l0,-16.699l14.844,0c-6.12,-4.948 -10.514,-10.189 -13.183,-15.723c-2.67,-5.534 -4.004,-11.686 -4.004,-18.457c0,-14.844 5.176,-24.87 15.527,-30.078c5.664,-2.865 13.77,-4.297 24.316,-4.297l67.09,0l0,17.871l-65.918,0c-6.38,0 -11.523,0.944 -15.429,2.832c-6.511,3.125 -9.766,8.789 -9.766,16.992c0,4.167 0.423,7.585 1.27,10.254c1.432,4.818 4.296,9.05 8.593,12.695c3.451,2.93 7.015,4.834 10.694,5.713c3.678,0.879 8.935,1.319 15.771,1.319l54.785,0l0,17.578l-104.59,0Z" style="fill-rule:nonzero;"/><path d="M2142.9,1085.67l0,-17.774l29.199,0l0,-16.699l14.356,0l0,16.699l68.262,0c3.646,0 6.087,-1.237 7.324,-3.711c0.716,-1.367 1.074,-3.645 1.074,-6.836c0,-0.846 -0.016,-1.757 -0.049,-2.734c-0.032,-0.976 -0.114,-2.116 -0.244,-3.418l13.867,0c0.586,2.018 1.009,4.118 1.27,6.299c0.26,2.181 0.39,4.541 0.39,7.08c0,8.203 -2.099,13.77 -6.298,16.699c-4.2,2.93 -9.652,4.395 -16.358,4.395l-69.238,0l0,14.16l-14.356,0l0,-14.16l-29.199,0Z" style="fill-rule:nonzero;"/><path d="M2172.1,1033.13l0,-16.7l18.067,0c-3.516,-1.367 -7.796,-4.72 -12.842,-10.058c-5.045,-5.339 -7.568,-11.491 -7.568,-18.457c0,-0.326 0.032,-0.879 0.097,-1.66c0.065,-0.782 0.196,-2.116 0.391,-4.004l18.555,0c-0.196,1.041 -0.326,2.002 -0.391,2.881c-0.065,0.879 -0.098,1.839 -0.098,2.881c0,8.854 2.849,15.657 8.545,20.41c5.697,4.752 12.256,7.129 19.678,7.129l60.156,0l0,17.578l-104.59,0Z" style="fill-rule:nonzero;"/><path d="M2248.86,953.542c5.078,0 9.082,-1.856 12.012,-5.567c2.93,-3.71 4.395,-8.105 4.395,-13.183c0,-6.185 -1.433,-12.175 -4.297,-17.969c-4.753,-9.766 -12.533,-14.648 -23.34,-14.648l-14.16,0c1.367,2.148 2.506,4.915 3.418,8.3c0.911,3.386 1.562,6.706 1.953,9.961l1.367,10.645c0.846,6.38 2.181,11.165 4.004,14.355c3.06,5.404 7.943,8.106 14.648,8.106Zm-35.547,-42.578c-0.52,-4.037 -2.213,-6.739 -5.078,-8.106c-1.562,-0.781 -3.808,-1.172 -6.738,-1.172c-5.99,0 -10.335,2.133 -13.037,6.397c-2.702,4.264 -4.053,10.368 -4.053,18.31c0,9.18 2.474,15.691 7.422,19.532c2.734,2.148 6.803,3.548 12.207,4.199l0,16.406c-12.891,-0.325 -21.859,-4.508 -26.904,-12.549c-5.046,-8.04 -7.569,-17.366 -7.569,-27.978c0,-12.305 2.344,-22.298 7.032,-29.981c4.687,-7.617 11.979,-11.425 21.875,-11.425l60.254,0c1.822,0 3.287,-0.375 4.394,-1.124c1.107,-0.748 1.66,-2.327 1.66,-4.736c0,-0.781 -0.049,-1.66 -0.146,-2.637c-0.098,-0.976 -0.244,-2.018 -0.44,-3.125l12.989,0c0.781,2.735 1.269,4.818 1.464,6.25c0.196,1.433 0.293,3.386 0.293,5.86c0,6.055 -2.148,10.449 -6.445,13.183c-2.279,1.433 -5.501,2.442 -9.668,3.028c4.688,3.58 8.757,8.724 12.207,15.429c3.451,6.706 5.176,14.095 5.176,22.168c0,9.701 -2.946,17.627 -8.838,23.78c-5.892,6.152 -13.265,9.228 -22.119,9.228c-9.701,0 -17.22,-3.027 -22.559,-9.082c-5.338,-6.054 -8.626,-13.997 -9.863,-23.828l-3.516,-28.027Z" style="fill-rule:nonzero;"/><path d="M2169.07,815.456c0,-11.784 2.865,-21.371 8.594,-28.76c5.729,-7.389 15.592,-11.833 29.59,-13.33l0,17.09c-6.446,1.042 -11.8,3.418 -16.065,7.129c-4.264,3.711 -6.396,9.668 -6.396,17.871c0,11.198 5.469,19.206 16.406,24.023c7.096,3.125 15.853,4.688 26.27,4.688c10.481,0 19.303,-2.214 26.464,-6.641c7.162,-4.427 10.743,-11.393 10.743,-20.898c0,-7.292 -2.23,-13.07 -6.69,-17.334c-4.459,-4.265 -10.563,-7.21 -18.31,-8.838l0,-17.09c13.867,1.953 24.007,6.836 30.42,14.649c6.412,7.812 9.619,17.805 9.619,29.98c0,13.672 -4.997,24.577 -14.991,32.715c-9.993,8.138 -22.477,12.207 -37.451,12.207c-18.359,0 -32.649,-4.46 -42.871,-13.379c-10.221,-8.919 -15.332,-20.28 -15.332,-34.082Z" style="fill-rule:nonzero;"/><path d="M2142.9,752.272l0,-17.773l29.199,0l0,-16.699l14.356,0l0,16.699l68.262,0c3.646,0 6.087,-1.237 7.324,-3.711c0.716,-1.367 1.074,-3.646 1.074,-6.836c0,-0.846 -0.016,-1.758 -0.049,-2.734c-0.032,-0.977 -0.114,-2.116 -0.244,-3.418l13.867,0c0.586,2.018 1.009,4.118 1.27,6.298c0.26,2.181 0.39,4.542 0.39,7.081c0,8.203 -2.099,13.769 -6.298,16.699c-4.2,2.929 -9.652,4.394 -16.358,4.394l-69.238,0l0,14.16l-14.356,0l0,-14.16l-29.199,0Z" style="fill-rule:nonzero;"/><path d="M2230.4,629.616c8.138,-0.456 14.746,-2.376 19.824,-5.762c9.506,-6.445 14.258,-17.806 14.258,-34.082c0,-7.291 -1.041,-13.932 -3.125,-19.922c-4.036,-11.588 -11.263,-17.382 -21.679,-17.382c-7.813,0 -13.379,2.441 -16.7,7.324c-3.255,4.948 -6.087,12.695 -8.496,23.242l-4.394,19.434c-2.865,12.695 -6.022,21.679 -9.473,26.953c-5.989,9.114 -14.941,13.672 -26.855,13.672c-12.891,0 -23.47,-4.46 -31.739,-13.379c-8.268,-8.92 -12.402,-21.55 -12.402,-37.891c0,-15.039 3.63,-27.816 10.889,-38.33c7.259,-10.514 18.864,-15.771 34.814,-15.771l0,18.261c-7.682,0.977 -13.574,3.06 -17.676,6.25c-7.487,5.925 -11.23,15.983 -11.23,30.176c0,11.458 2.409,19.694 7.226,24.707c4.818,5.013 10.417,7.52 16.797,7.52c7.032,0 12.175,-2.93 15.43,-8.789c2.083,-3.842 4.688,-12.533 7.813,-26.075l4.589,-20.117c2.214,-9.7 5.241,-17.187 9.082,-22.461c6.706,-9.114 16.439,-13.672 29.2,-13.672c15.885,0 27.246,5.778 34.082,17.334c6.836,11.556 10.254,24.984 10.254,40.284c0,17.838 -4.558,31.803 -13.672,41.894c-9.05,10.091 -21.322,15.039 -36.817,14.844l0,-18.262Z" style="fill-rule:nonzero;"/><path d="M2142.9,507.741l0,-17.773l29.199,0l0,-16.7l14.356,0l0,16.7l68.262,0c3.646,0 6.087,-1.237 7.324,-3.711c0.716,-1.367 1.074,-3.646 1.074,-6.836c0,-0.847 -0.016,-1.758 -0.049,-2.735c-0.032,-0.976 -0.114,-2.116 -0.244,-3.418l13.867,0c0.586,2.019 1.009,4.118 1.27,6.299c0.26,2.181 0.39,4.541 0.39,7.08c0,8.203 -2.099,13.77 -6.298,16.7c-4.2,2.929 -9.652,4.394 -16.358,4.394l-69.238,0l0,14.16l-14.356,0l0,-14.16l-29.199,0Z" style="fill-rule:nonzero;"/><path d="M2248.86,442.214c5.078,0 9.082,-1.856 12.012,-5.567c2.93,-3.711 4.395,-8.105 4.395,-13.183c0,-6.185 -1.433,-12.175 -4.297,-17.969c-4.753,-9.766 -12.533,-14.648 -23.34,-14.648l-14.16,0c1.367,2.148 2.506,4.915 3.418,8.3c0.911,3.386 1.562,6.706 1.953,9.961l1.367,10.645c0.846,6.38 2.181,11.165 4.004,14.355c3.06,5.404 7.943,8.106 14.648,8.106Zm-35.547,-42.578c-0.52,-4.037 -2.213,-6.739 -5.078,-8.106c-1.562,-0.781 -3.808,-1.172 -6.738,-1.172c-5.99,0 -10.335,2.132 -13.037,6.397c-2.702,4.264 -4.053,10.368 -4.053,18.31c0,9.18 2.474,15.69 7.422,19.532c2.734,2.148 6.803,3.548 12.207,4.199l0,16.406c-12.891,-0.326 -21.859,-4.508 -26.904,-12.549c-5.046,-8.04 -7.569,-17.366 -7.569,-27.978c0,-12.305 2.344,-22.299 7.032,-29.981c4.687,-7.617 11.979,-11.426 21.875,-11.426l60.254,0c1.822,0 3.287,-0.374 4.394,-1.123c1.107,-0.748 1.66,-2.327 1.66,-4.736c0,-0.781 -0.049,-1.66 -0.146,-2.637c-0.098,-0.976 -0.244,-2.018 -0.44,-3.125l12.989,0c0.781,2.735 1.269,4.818 1.464,6.25c0.196,1.433 0.293,3.386 0.293,5.86c0,6.054 -2.148,10.449 -6.445,13.183c-2.279,1.433 -5.501,2.442 -9.668,3.028c4.688,3.58 8.757,8.724 12.207,15.429c3.451,6.706 5.176,14.095 5.176,22.168c0,9.701 -2.946,17.627 -8.838,23.78c-5.892,6.152 -13.265,9.228 -22.119,9.228c-9.701,0 -17.22,-3.027 -22.559,-9.082c-5.338,-6.055 -8.626,-13.997 -9.863,-23.828l-3.516,-28.027Z" style="fill-rule:nonzero;"/><path d="M2169.07,304.128c0,-11.784 2.865,-21.371 8.594,-28.76c5.729,-7.389 15.592,-11.833 29.59,-13.33l0,17.09c-6.446,1.041 -11.8,3.418 -16.065,7.129c-4.264,3.711 -6.396,9.668 -6.396,17.871c0,11.198 5.469,19.206 16.406,24.023c7.096,3.125 15.853,4.688 26.27,4.688c10.481,0 19.303,-2.214 26.464,-6.641c7.162,-4.427 10.743,-11.393 10.743,-20.898c0,-7.292 -2.23,-13.07 -6.69,-17.334c-4.459,-4.265 -10.563,-7.211 -18.31,-8.838l0,-17.09c13.867,1.953 24.007,6.836 30.42,14.648c6.412,7.813 9.619,17.806 9.619,29.981c0,13.672 -4.997,24.577 -14.991,32.715c-9.993,8.138 -22.477,12.207 -37.451,12.207c-18.359,0 -32.649,-4.46 -42.871,-13.379c-10.221,-8.919 -15.332,-20.28 -15.332,-34.082Z" style="fill-rule:nonzero;"/><path d="M2133.24,244.85l0,-16.894l83.301,0l-44.434,-45.117l0,-22.461l39.161,40.039l65.429,-42.285l0,22.461l-52.734,32.617l13.477,14.746l39.257,0l0,16.894l-143.457,0Z" style="fill-rule:nonzero;"/><path d="M835.417,64.583c0,-34.494 -28.006,-62.5 -62.5,-62.5l-708.334,0c-34.494,0 -62.5,28.006 -62.5,62.5l0,291.667c0,34.495 28.006,62.5 62.5,62.5l708.334,0c34.494,0 62.5,-28.005 62.5,-62.5l0,-291.667Z" style="fill:#fff;stroke:#000;stroke-width:4.17px;"/><g transform="matrix(8.80483,0,0,8.80483,418.362,192.848)"><path d="M-44.932,-12.22l5.499,0c1.087,0 1.963,0.307 2.628,0.919c0.666,0.613 0.998,1.474 0.998,2.583c0,0.954 -0.296,1.785 -0.89,2.492c-0.593,0.707 -1.505,1.06 -2.736,1.06l-3.844,0l0,5.166l-1.655,0l0,-12.22Zm7.453,3.511c0,-0.899 -0.332,-1.509 -0.998,-1.83c-0.366,-0.172 -0.868,-0.258 -1.505,-0.258l-3.295,0l0,4.234l3.295,0c0.743,0 1.346,-0.158 1.809,-0.474c0.463,-0.316 0.694,-0.874 0.694,-1.672Z" style="fill-rule:nonzero;"/><path d="M-32.429,-8.909l0,5.914c0,0.455 0.072,0.827 0.216,1.115c0.266,0.532 0.762,0.799 1.489,0.799c1.043,0 1.752,-0.466 2.129,-1.398c0.206,-0.499 0.308,-1.184 0.308,-2.055l0,-4.375l1.498,0l0,8.909l-1.415,0l0.017,-1.314c-0.194,0.338 -0.435,0.624 -0.724,0.856c-0.571,0.466 -1.264,0.699 -2.079,0.699c-1.27,0 -2.135,-0.424 -2.596,-1.272c-0.249,-0.455 -0.374,-1.062 -0.374,-1.822l0,-6.056l1.531,0Z" style="fill-rule:nonzero;"/><path d="M-24.568,-12.261l1.455,0l0,4.433c0.327,-0.427 0.718,-0.752 1.173,-0.977c0.455,-0.225 0.948,-0.337 1.481,-0.337c1.109,0 2.009,0.381 2.699,1.144c0.691,0.762 1.036,1.887 1.036,3.373c0,1.409 -0.341,2.579 -1.023,3.51c-0.682,0.932 -1.628,1.398 -2.837,1.398c-0.676,0 -1.248,-0.164 -1.714,-0.491c-0.277,-0.194 -0.573,-0.505 -0.89,-0.932l0,1.14l-1.38,0l0,-12.261Zm3.893,11.221c0.809,0 1.415,-0.321 1.817,-0.965c0.402,-0.643 0.603,-1.492 0.603,-2.545c0,-0.937 -0.201,-1.714 -0.603,-2.329c-0.402,-0.616 -0.994,-0.924 -1.776,-0.924c-0.682,0 -1.279,0.253 -1.792,0.757c-0.513,0.505 -0.77,1.337 -0.77,2.496c0,0.837 0.105,1.517 0.316,2.038c0.394,0.981 1.129,1.472 2.205,1.472Z" style="fill-rule:nonzero;"/><rect x="-14.936" y="-12.22" width="1.497" height="12.22" style="fill-rule:nonzero;"/><path d="M-11.192,-8.867l1.522,0l0,8.867l-1.522,0l0,-8.867Zm0,-3.353l1.522,0l0,1.697l-1.522,0l0,-1.697Z" style="fill-rule:nonzero;"/><path d="M-3.972,-9.167c1.004,0 1.82,0.244 2.45,0.732c0.629,0.488 1.008,1.328 1.135,2.521l-1.456,0c-0.088,-0.549 -0.291,-1.006 -0.607,-1.369c-0.316,-0.363 -0.823,-0.545 -1.522,-0.545c-0.954,0 -1.636,0.466 -2.046,1.398c-0.267,0.604 -0.4,1.35 -0.4,2.238c0,0.892 0.189,1.644 0.566,2.254c0.377,0.61 0.97,0.915 1.78,0.915c0.621,0 1.113,-0.19 1.477,-0.57c0.363,-0.38 0.614,-0.9 0.752,-1.56l1.456,0c-0.166,1.182 -0.582,2.045 -1.248,2.592c-0.665,0.546 -1.516,0.819 -2.553,0.819c-1.165,0 -2.094,-0.426 -2.787,-1.277c-0.693,-0.851 -1.04,-1.915 -1.04,-3.19c0,-1.564 0.38,-2.781 1.14,-3.652c0.76,-0.871 1.727,-1.306 2.903,-1.306Z" style="fill-rule:nonzero;"/><path d="M11.192,-12.552c1.548,0 2.748,0.407 3.602,1.222c0.854,0.816 1.328,1.742 1.423,2.779l-1.614,0c-0.183,-0.788 -0.548,-1.412 -1.094,-1.872c-0.546,-0.46 -1.313,-0.69 -2.3,-0.69c-1.203,0 -2.175,0.422 -2.916,1.268c-0.74,0.846 -1.11,2.142 -1.11,3.889c0,1.431 0.334,2.591 1.002,3.481c0.669,0.89 1.665,1.335 2.991,1.335c1.22,0 2.149,-0.468 2.786,-1.405c0.339,-0.494 0.591,-1.143 0.757,-1.947l1.614,0c-0.144,1.287 -0.621,2.365 -1.431,3.236c-0.97,1.048 -2.279,1.572 -3.926,1.572c-1.42,0 -2.612,-0.43 -3.577,-1.289c-1.27,-1.137 -1.905,-2.892 -1.905,-5.266c0,-1.802 0.477,-3.28 1.431,-4.434c1.032,-1.253 2.454,-1.879 4.267,-1.879Z" style="fill-rule:nonzero;"/><path d="M21.682,-0.965c0.993,0 1.673,-0.376 2.042,-1.127c0.369,-0.752 0.553,-1.588 0.553,-2.508c0,-0.832 -0.133,-1.508 -0.399,-2.03c-0.421,-0.821 -1.148,-1.231 -2.179,-1.231c-0.915,0 -1.581,0.349 -1.997,1.048c-0.416,0.699 -0.624,1.542 -0.624,2.529c0,0.948 0.208,1.739 0.624,2.371c0.416,0.632 1.076,0.948 1.98,0.948Zm0.058,-8.202c1.148,0 2.119,0.383 2.912,1.148c0.793,0.765 1.189,1.891 1.189,3.377c0,1.437 -0.349,2.623 -1.048,3.561c-0.699,0.937 -1.783,1.405 -3.252,1.405c-1.226,0 -2.199,-0.414 -2.92,-1.243c-0.721,-0.829 -1.082,-1.943 -1.082,-3.34c0,-1.497 0.38,-2.69 1.14,-3.577c0.76,-0.887 1.78,-1.331 3.061,-1.331Z" style="fill-rule:nonzero;"/><path d="M27.621,-8.909l1.481,0l0,1.264c0.355,-0.438 0.677,-0.757 0.965,-0.956c0.493,-0.339 1.054,-0.508 1.68,-0.508c0.71,0 1.281,0.175 1.714,0.524c0.244,0.2 0.466,0.494 0.665,0.882c0.333,-0.477 0.724,-0.83 1.173,-1.06c0.449,-0.231 0.954,-0.346 1.514,-0.346c1.198,0 2.013,0.433 2.446,1.298c0.233,0.466 0.349,1.092 0.349,1.88l0,5.931l-1.555,0l0,-6.189c0,-0.593 -0.149,-1.001 -0.445,-1.223c-0.297,-0.222 -0.659,-0.332 -1.086,-0.332c-0.588,0 -1.094,0.196 -1.518,0.59c-0.424,0.394 -0.636,1.051 -0.636,1.972l0,5.182l-1.523,0l0,-5.815c0,-0.604 -0.072,-1.045 -0.216,-1.322c-0.227,-0.416 -0.652,-0.624 -1.273,-0.624c-0.565,0 -1.08,0.219 -1.543,0.657c-0.463,0.438 -0.694,1.231 -0.694,2.379l0,4.725l-1.498,0l0,-8.909Z" style="fill-rule:nonzero;"/><rect x="41.422" y="-5.515" width="4.176" height="1.539" style="fill-rule:nonzero;"/><path d="M-40.095,8.127l1.481,0l0,1.264c0.355,-0.438 0.676,-0.756 0.965,-0.956c0.493,-0.338 1.054,-0.508 1.68,-0.508c0.71,0 1.281,0.175 1.714,0.525c0.244,0.199 0.466,0.493 0.665,0.881c0.333,-0.477 0.724,-0.83 1.173,-1.06c0.449,-0.23 0.954,-0.346 1.514,-0.346c1.198,0 2.013,0.433 2.446,1.298c0.233,0.466 0.349,1.093 0.349,1.88l0,5.931l-1.555,0l0,-6.189c0,-0.593 -0.149,-1.001 -0.445,-1.223c-0.297,-0.221 -0.659,-0.332 -1.086,-0.332c-0.588,0 -1.094,0.197 -1.518,0.59c-0.424,0.394 -0.637,1.051 -0.637,1.972l0,5.182l-1.522,0l0,-5.814c0,-0.605 -0.072,-1.046 -0.216,-1.323c-0.227,-0.416 -0.652,-0.624 -1.273,-0.624c-0.565,0 -1.08,0.219 -1.543,0.657c-0.463,0.438 -0.694,1.231 -0.694,2.379l0,4.725l-1.498,0l0,-8.909Z" style="fill-rule:nonzero;"/><path d="M-24.406,8.127l0,5.914c0,0.455 0.072,0.827 0.216,1.115c0.266,0.533 0.763,0.799 1.489,0.799c1.043,0 1.752,-0.466 2.13,-1.398c0.205,-0.499 0.307,-1.184 0.307,-2.054l0,-4.376l1.498,0l0,8.909l-1.414,0l0.016,-1.314c-0.194,0.338 -0.435,0.624 -0.724,0.857c-0.571,0.465 -1.264,0.698 -2.079,0.698c-1.27,0 -2.135,-0.424 -2.595,-1.272c-0.25,-0.455 -0.375,-1.062 -0.375,-1.822l0,-6.056l1.531,0Z" style="fill-rule:nonzero;"/><path d="M-16.429,8.127l1.423,0l0,1.264c0.421,-0.521 0.867,-0.895 1.339,-1.122c0.471,-0.228 0.995,-0.342 1.572,-0.342c1.264,0 2.118,0.441 2.562,1.323c0.244,0.483 0.366,1.173 0.366,2.071l0,5.715l-1.522,0l0,-5.615c0,-0.543 -0.081,-0.981 -0.241,-1.314c-0.267,-0.555 -0.749,-0.832 -1.448,-0.832c-0.355,0 -0.646,0.036 -0.873,0.108c-0.411,0.122 -0.771,0.366 -1.082,0.732c-0.249,0.294 -0.411,0.598 -0.486,0.911c-0.075,0.313 -0.113,0.761 -0.113,1.343l0,4.667l-1.497,0l0,-8.909Z" style="fill-rule:nonzero;"/><path d="M-6.954,8.169l1.522,0l0,8.867l-1.522,0l0,-8.867Zm0,-3.353l1.522,0l0,1.697l-1.522,0l0,-1.697Z" style="fill-rule:nonzero;"/><path d="M0.266,7.869c1.004,0 1.821,0.244 2.45,0.732c0.629,0.488 1.008,1.328 1.135,2.521l-1.455,0c-0.089,-0.549 -0.291,-1.005 -0.608,-1.369c-0.316,-0.363 -0.823,-0.545 -1.522,-0.545c-0.954,0 -1.636,0.466 -2.046,1.398c-0.266,0.604 -0.399,1.35 -0.399,2.238c0,0.892 0.188,1.644 0.565,2.254c0.377,0.61 0.971,0.915 1.78,0.915c0.621,0 1.114,-0.19 1.477,-0.57c0.363,-0.38 0.614,-0.9 0.753,-1.56l1.455,0c-0.166,1.182 -0.582,2.045 -1.247,2.592c-0.666,0.546 -1.517,0.819 -2.554,0.819c-1.165,0 -2.094,-0.426 -2.787,-1.277c-0.693,-0.851 -1.04,-1.915 -1.04,-3.19c0,-1.564 0.38,-2.781 1.14,-3.652c0.76,-0.87 1.728,-1.306 2.903,-1.306Z" style="fill-rule:nonzero;"/><path d="M6.497,14.665c0,0.433 0.158,0.774 0.474,1.024c0.316,0.249 0.69,0.374 1.123,0.374c0.527,0 1.037,-0.122 1.53,-0.366c0.832,-0.405 1.248,-1.068 1.248,-1.988l0,-1.206c-0.183,0.116 -0.419,0.213 -0.707,0.291c-0.288,0.077 -0.571,0.133 -0.848,0.166l-0.907,0.117c-0.544,0.072 -0.951,0.185 -1.223,0.341c-0.46,0.26 -0.69,0.676 -0.69,1.247Zm3.627,-3.028c0.343,-0.044 0.573,-0.188 0.69,-0.432c0.066,-0.133 0.1,-0.325 0.1,-0.574c0,-0.51 -0.182,-0.88 -0.545,-1.111c-0.363,-0.23 -0.883,-0.345 -1.56,-0.345c-0.782,0 -1.336,0.211 -1.663,0.632c-0.183,0.233 -0.303,0.58 -0.358,1.04l-1.398,0c0.028,-1.098 0.384,-1.862 1.069,-2.292c0.685,-0.429 1.48,-0.644 2.383,-0.644c1.049,0 1.9,0.199 2.554,0.599c0.649,0.399 0.973,1.02 0.973,1.863l0,5.133c0,0.155 0.032,0.28 0.096,0.374c0.064,0.094 0.198,0.141 0.404,0.141c0.066,0 0.141,-0.004 0.224,-0.012c0.083,-0.009 0.172,-0.021 0.266,-0.038l0,1.107c-0.233,0.066 -0.41,0.108 -0.532,0.124c-0.122,0.017 -0.288,0.025 -0.499,0.025c-0.516,0 -0.89,-0.183 -1.123,-0.549c-0.122,-0.194 -0.208,-0.468 -0.258,-0.823c-0.305,0.399 -0.743,0.746 -1.314,1.04c-0.571,0.294 -1.201,0.441 -1.889,0.441c-0.826,0 -1.501,-0.251 -2.025,-0.753c-0.524,-0.502 -0.786,-1.13 -0.786,-1.884c0,-0.827 0.258,-1.467 0.773,-1.922c0.516,-0.455 1.193,-0.735 2.03,-0.84l2.388,-0.3Z" style="fill-rule:nonzero;"/><path d="M15.123,5.64l1.514,0l0,2.487l1.422,0l0,1.223l-1.422,0l0,5.814c0,0.311 0.105,0.519 0.316,0.624c0.116,0.061 0.31,0.092 0.582,0.092c0.072,0 0.15,-0.002 0.233,-0.004c0.083,-0.003 0.18,-0.01 0.291,-0.021l0,1.181c-0.172,0.05 -0.35,0.086 -0.536,0.108c-0.186,0.022 -0.387,0.034 -0.603,0.034c-0.699,0 -1.173,-0.179 -1.423,-0.537c-0.249,-0.358 -0.374,-0.822 -0.374,-1.393l0,-5.898l-1.206,0l0,-1.223l1.206,0l0,-2.487Z" style="fill-rule:nonzero;"/><path d="M19.557,8.169l1.522,0l0,8.867l-1.522,0l0,-8.867Zm0,-3.353l1.522,0l0,1.697l-1.522,0l0,-1.697Z" style="fill-rule:nonzero;"/><path d="M26.877,16.071c0.992,0 1.673,-0.376 2.042,-1.127c0.369,-0.751 0.553,-1.587 0.553,-2.508c0,-0.832 -0.133,-1.508 -0.399,-2.03c-0.422,-0.82 -1.148,-1.231 -2.18,-1.231c-0.915,0 -1.58,0.35 -1.996,1.048c-0.416,0.699 -0.624,1.542 -0.624,2.529c0,0.948 0.208,1.739 0.624,2.371c0.416,0.632 1.076,0.948 1.98,0.948Zm0.058,-8.202c1.148,0 2.118,0.383 2.911,1.148c0.793,0.765 1.19,1.891 1.19,3.377c0,1.437 -0.349,2.624 -1.048,3.561c-0.699,0.937 -1.783,1.406 -3.253,1.406c-1.225,0 -2.198,-0.415 -2.919,-1.244c-0.721,-0.829 -1.082,-1.942 -1.082,-3.34c0,-1.497 0.38,-2.69 1.14,-3.577c0.76,-0.887 1.78,-1.331 3.061,-1.331Z" style="fill-rule:nonzero;"/><path d="M32.816,8.127l1.423,0l0,1.264c0.421,-0.521 0.867,-0.895 1.339,-1.122c0.471,-0.228 0.995,-0.342 1.572,-0.342c1.264,0 2.118,0.441 2.562,1.323c0.244,0.483 0.366,1.173 0.366,2.071l0,5.715l-1.522,0l0,-5.615c0,-0.543 -0.081,-0.981 -0.241,-1.314c-0.267,-0.555 -0.749,-0.832 -1.448,-0.832c-0.355,0 -0.646,0.036 -0.873,0.108c-0.411,0.122 -0.771,0.366 -1.082,0.732c-0.249,0.294 -0.411,0.598 -0.486,0.911c-0.075,0.313 -0.113,0.761 -0.113,1.343l0,4.667l-1.497,0l0,-8.909Z" style="fill-rule:nonzero;"/></g><path d="M835.417,1060.83c0,-49.672 -40.328,-90 -90,-90l-653.334,0c-49.672,0 -90,40.328 -90,90l0,420c0,49.673 40.328,90 90,90l653.334,0c49.672,0 90,-40.327 90,-90l0,-420Z" style="fill:#fff;stroke:#000;stroke-width:4.17px;"/><g transform="matrix(11.9656,0,0,11.9656,431.267,1236.97)"><path d="M-11.85,-3.685l-1.365,-3.972l-1.451,3.972l2.816,0Zm-2.002,-5.307l1.377,0l3.263,8.992l-1.335,0l-0.912,-2.693l-3.556,0l-0.973,2.693l-1.249,0l3.385,-8.992Z" style="fill-rule:nonzero;"/><path d="M-5.723,-6.745c0.738,0 1.339,0.179 1.802,0.538c0.464,0.359 0.742,0.978 0.836,1.855l-1.071,0c-0.065,-0.404 -0.214,-0.74 -0.447,-1.007c-0.233,-0.267 -0.606,-0.401 -1.12,-0.401c-0.702,0 -1.204,0.343 -1.506,1.028c-0.196,0.445 -0.294,0.994 -0.294,1.647c0,0.657 0.139,1.21 0.416,1.659c0.278,0.449 0.715,0.673 1.31,0.673c0.457,0 0.82,-0.14 1.087,-0.419c0.267,-0.28 0.452,-0.662 0.554,-1.148l1.071,0c-0.122,0.869 -0.428,1.505 -0.918,1.907c-0.49,0.402 -1.116,0.603 -1.879,0.603c-0.857,0 -1.541,-0.313 -2.051,-0.94c-0.51,-0.626 -0.765,-1.409 -0.765,-2.347c0,-1.151 0.279,-2.047 0.839,-2.687c0.559,-0.641 1.271,-0.961 2.136,-0.961Z" style="fill-rule:nonzero;"/><path d="M-1.763,-8.386l1.114,0l0,1.83l1.047,0l0,0.9l-1.047,0l0,4.279c0,0.228 0.078,0.381 0.233,0.459c0.085,0.045 0.228,0.067 0.428,0.067c0.053,0 0.11,-0.001 0.172,-0.003c0.061,-0.002 0.132,-0.007 0.214,-0.015l0,0.869c-0.127,0.037 -0.258,0.063 -0.395,0.08c-0.137,0.016 -0.285,0.024 -0.444,0.024c-0.514,0 -0.863,-0.132 -1.046,-0.395c-0.184,-0.263 -0.276,-0.605 -0.276,-1.025l0,-4.34l-0.887,0l0,-0.9l0.887,0l0,-1.83Z" style="fill-rule:nonzero;"/><path d="M2.601,-6.556l0,4.352c0,0.335 0.054,0.608 0.16,0.821c0.195,0.391 0.561,0.587 1.095,0.587c0.767,0 1.29,-0.343 1.567,-1.028c0.151,-0.367 0.227,-0.871 0.227,-1.512l0,-3.22l1.102,0l0,6.556l-1.041,0l0.012,-0.967c-0.143,0.249 -0.32,0.459 -0.532,0.63c-0.421,0.343 -0.931,0.515 -1.531,0.515c-0.934,0 -1.571,-0.313 -1.909,-0.937c-0.184,-0.335 -0.276,-0.781 -0.276,-1.341l0,-4.456l1.126,0Z" style="fill-rule:nonzero;"/><path d="M9.316,-1.745c0,0.319 0.117,0.57 0.349,0.753c0.233,0.184 0.508,0.276 0.827,0.276c0.387,0 0.763,-0.09 1.126,-0.269c0.612,-0.298 0.918,-0.786 0.918,-1.463l0,-0.888c-0.135,0.086 -0.308,0.157 -0.52,0.214c-0.213,0.057 -0.421,0.098 -0.625,0.123l-0.667,0.085c-0.4,0.053 -0.7,0.137 -0.9,0.251c-0.338,0.192 -0.508,0.498 -0.508,0.918Zm2.669,-2.228c0.253,-0.032 0.422,-0.138 0.508,-0.318c0.049,-0.098 0.074,-0.239 0.074,-0.422c0,-0.376 -0.134,-0.648 -0.401,-0.817c-0.268,-0.17 -0.65,-0.254 -1.148,-0.254c-0.575,0 -0.984,0.155 -1.224,0.465c-0.135,0.171 -0.223,0.426 -0.264,0.765l-1.028,0c0.021,-0.808 0.283,-1.37 0.787,-1.686c0.504,-0.317 1.088,-0.475 1.753,-0.475c0.772,0 1.398,0.147 1.88,0.441c0.477,0.294 0.716,0.751 0.716,1.371l0,3.777c0,0.114 0.023,0.206 0.07,0.275c0.047,0.07 0.146,0.104 0.297,0.104c0.049,0 0.104,-0.003 0.165,-0.009c0.061,-0.006 0.127,-0.015 0.196,-0.027l0,0.814c-0.171,0.049 -0.302,0.079 -0.392,0.091c-0.089,0.013 -0.212,0.019 -0.367,0.019c-0.379,0 -0.655,-0.135 -0.826,-0.404c-0.09,-0.143 -0.153,-0.345 -0.19,-0.606c-0.224,0.294 -0.547,0.549 -0.967,0.765c-0.42,0.216 -0.884,0.324 -1.39,0.324c-0.608,0 -1.104,-0.184 -1.49,-0.554c-0.386,-0.369 -0.579,-0.831 -0.579,-1.386c0,-0.608 0.19,-1.079 0.57,-1.414c0.379,-0.335 0.877,-0.541 1.493,-0.618l1.757,-0.221Z" style="fill-rule:nonzero;"/><rect x="15.474" y="-8.992" width="1.102" height="8.992" style="fill-rule:nonzero;"/><path d="M-29.014,3.544l1.218,0l0,7.921l4.554,0l0,1.071l-5.772,0l0,-8.992Z" style="fill-rule:nonzero;"/><path d="M-19.459,5.833c0.465,0 0.916,0.11 1.353,0.328c0.437,0.218 0.769,0.501 0.998,0.848c0.22,0.33 0.367,0.716 0.44,1.156c0.066,0.302 0.098,0.784 0.098,1.445l-4.805,0c0.021,0.665 0.178,1.199 0.472,1.601c0.293,0.402 0.748,0.603 1.365,0.603c0.575,0 1.034,-0.19 1.377,-0.57c0.196,-0.22 0.334,-0.475 0.416,-0.765l1.083,0c-0.028,0.241 -0.123,0.509 -0.284,0.805c-0.161,0.296 -0.342,0.538 -0.542,0.726c-0.334,0.326 -0.749,0.546 -1.242,0.661c-0.266,0.065 -0.566,0.098 -0.9,0.098c-0.816,0 -1.508,-0.297 -2.075,-0.891c-0.568,-0.594 -0.851,-1.425 -0.851,-2.494c0,-1.053 0.286,-1.908 0.857,-2.565c0.571,-0.657 1.318,-0.986 2.24,-0.986Zm1.757,2.902c-0.045,-0.478 -0.149,-0.859 -0.312,-1.145c-0.302,-0.53 -0.806,-0.796 -1.512,-0.796c-0.506,0 -0.931,0.183 -1.273,0.548c-0.343,0.365 -0.525,0.83 -0.545,1.393l3.642,0Z" style="fill-rule:nonzero;"/><path d="M-12.903,5.864c0.514,0 0.963,0.126 1.346,0.379c0.209,0.143 0.421,0.351 0.637,0.625l0,-0.827l1.016,0l0,5.962c0,0.833 -0.122,1.49 -0.367,1.971c-0.457,0.89 -1.32,1.335 -2.589,1.335c-0.706,0 -1.3,-0.158 -1.782,-0.475c-0.481,-0.316 -0.75,-0.811 -0.808,-1.484l1.121,0c0.053,0.294 0.159,0.52 0.318,0.679c0.249,0.245 0.641,0.368 1.175,0.368c0.845,0 1.398,-0.298 1.659,-0.894c0.155,-0.351 0.226,-0.977 0.214,-1.879c-0.22,0.335 -0.485,0.583 -0.796,0.747c-0.31,0.163 -0.72,0.245 -1.23,0.245c-0.71,0 -1.331,-0.252 -1.864,-0.756c-0.532,-0.504 -0.799,-1.338 -0.799,-2.501c0,-1.098 0.269,-1.955 0.805,-2.571c0.537,-0.616 1.185,-0.924 1.944,-0.924Zm1.983,3.367c0,-0.812 -0.167,-1.414 -0.502,-1.806c-0.335,-0.392 -0.761,-0.588 -1.279,-0.588c-0.776,0 -1.306,0.363 -1.592,1.09c-0.151,0.387 -0.226,0.895 -0.226,1.524c0,0.739 0.15,1.301 0.45,1.686c0.3,0.386 0.703,0.579 1.209,0.579c0.791,0 1.348,-0.357 1.671,-1.071c0.179,-0.404 0.269,-0.876 0.269,-1.414Z" style="fill-rule:nonzero;"/><path d="M-8.245,6.011l1.12,0l0,6.525l-1.12,0l0,-6.525Zm0,-2.467l1.12,0l0,1.249l-1.12,0l0,-1.249Z" style="fill-rule:nonzero;"/><path d="M-4.805,10.479c0.033,0.368 0.124,0.649 0.275,0.845c0.278,0.355 0.759,0.533 1.445,0.533c0.408,0 0.767,-0.089 1.077,-0.267c0.31,-0.177 0.465,-0.452 0.465,-0.823c0,-0.282 -0.124,-0.496 -0.373,-0.643c-0.159,-0.09 -0.473,-0.194 -0.943,-0.312l-0.875,-0.22c-0.559,-0.139 -0.971,-0.294 -1.236,-0.465c-0.474,-0.298 -0.71,-0.711 -0.71,-1.237c0,-0.62 0.223,-1.122 0.67,-1.506c0.447,-0.383 1.048,-0.575 1.803,-0.575c0.987,0 1.699,0.29 2.136,0.869c0.273,0.367 0.406,0.763 0.398,1.188l-1.041,0c-0.02,-0.249 -0.108,-0.476 -0.263,-0.68c-0.253,-0.29 -0.692,-0.434 -1.316,-0.434c-0.416,0 -0.732,0.079 -0.946,0.238c-0.214,0.159 -0.321,0.37 -0.321,0.631c0,0.285 0.141,0.514 0.422,0.685c0.163,0.102 0.404,0.192 0.722,0.27l0.729,0.177c0.792,0.192 1.322,0.378 1.591,0.557c0.429,0.282 0.643,0.724 0.643,1.328c0,0.584 -0.221,1.088 -0.664,1.512c-0.443,0.425 -1.117,0.637 -2.023,0.637c-0.975,0 -1.666,-0.221 -2.072,-0.664c-0.406,-0.443 -0.623,-0.991 -0.652,-1.644l1.059,0Z" style="fill-rule:nonzero;"/><rect x="0.839" y="3.544" width="1.102" height="8.992" style="fill-rule:nonzero;"/><path d="M4.438,10.791c0,0.319 0.116,0.57 0.349,0.753c0.232,0.184 0.508,0.276 0.826,0.276c0.388,0 0.763,-0.09 1.126,-0.27c0.612,-0.297 0.918,-0.785 0.918,-1.462l0,-0.888c-0.134,0.086 -0.308,0.157 -0.52,0.214c-0.212,0.057 -0.42,0.098 -0.624,0.123l-0.667,0.085c-0.4,0.053 -0.7,0.137 -0.9,0.251c-0.339,0.192 -0.508,0.498 -0.508,0.918Zm2.669,-2.228c0.253,-0.032 0.422,-0.138 0.508,-0.318c0.049,-0.098 0.073,-0.239 0.073,-0.422c0,-0.376 -0.134,-0.648 -0.401,-0.817c-0.267,-0.17 -0.65,-0.254 -1.148,-0.254c-0.575,0 -0.983,0.155 -1.224,0.465c-0.134,0.171 -0.222,0.426 -0.263,0.765l-1.028,0c0.02,-0.808 0.282,-1.37 0.786,-1.686c0.504,-0.317 1.089,-0.475 1.754,-0.475c0.771,0 1.398,0.147 1.879,0.441c0.478,0.294 0.716,0.751 0.716,1.371l0,3.777c0,0.114 0.024,0.206 0.071,0.275c0.047,0.069 0.146,0.104 0.297,0.104c0.048,0 0.104,-0.003 0.165,-0.009c0.061,-0.006 0.126,-0.015 0.196,-0.028l0,0.815c-0.172,0.049 -0.302,0.079 -0.392,0.091c-0.09,0.013 -0.212,0.019 -0.367,0.019c-0.38,0 -0.655,-0.135 -0.827,-0.404c-0.089,-0.143 -0.153,-0.345 -0.189,-0.606c-0.225,0.294 -0.547,0.549 -0.968,0.765c-0.42,0.216 -0.883,0.324 -1.389,0.324c-0.608,0 -1.105,-0.184 -1.491,-0.554c-0.385,-0.369 -0.578,-0.831 -0.578,-1.386c0,-0.608 0.19,-1.079 0.569,-1.414c0.38,-0.335 0.878,-0.541 1.494,-0.618l1.757,-0.221Z" style="fill-rule:nonzero;"/><path d="M10.785,4.15l1.114,0l0,1.83l1.047,0l0,0.9l-1.047,0l0,4.279c0,0.228 0.078,0.381 0.233,0.459c0.086,0.045 0.228,0.067 0.428,0.067c0.053,0 0.111,-0.001 0.172,-0.003c0.061,-0.002 0.132,-0.007 0.214,-0.015l0,0.869c-0.126,0.037 -0.258,0.063 -0.395,0.08c-0.136,0.016 -0.284,0.024 -0.444,0.024c-0.514,0 -0.863,-0.132 -1.046,-0.395c-0.184,-0.263 -0.276,-0.605 -0.276,-1.025l0,-4.34l-0.887,0l0,-0.9l0.887,0l0,-1.83Z" style="fill-rule:nonzero;"/><path d="M14.048,6.011l1.12,0l0,6.525l-1.12,0l0,-6.525Zm0,-2.467l1.12,0l0,1.249l-1.12,0l0,-1.249Z" style="fill-rule:nonzero;"/><path d="M19.434,11.826c0.731,0 1.232,-0.277 1.503,-0.83c0.271,-0.552 0.407,-1.168 0.407,-1.845c0,-0.612 -0.098,-1.11 -0.294,-1.494c-0.31,-0.603 -0.844,-0.905 -1.603,-0.905c-0.674,0 -1.163,0.257 -1.469,0.771c-0.306,0.514 -0.46,1.134 -0.46,1.861c0,0.697 0.154,1.279 0.46,1.744c0.306,0.465 0.791,0.698 1.456,0.698Zm0.043,-6.035c0.845,0 1.559,0.281 2.143,0.844c0.583,0.563 0.875,1.392 0.875,2.485c0,1.057 -0.257,1.931 -0.771,2.62c-0.515,0.69 -1.312,1.035 -2.394,1.035c-0.902,0 -1.618,-0.305 -2.148,-0.915c-0.531,-0.611 -0.796,-1.43 -0.796,-2.458c0,-1.102 0.28,-1.979 0.839,-2.632c0.559,-0.653 1.31,-0.979 2.252,-0.979Z" style="fill-rule:nonzero;"/><path d="M23.805,5.98l1.047,0l0,0.931c0.31,-0.384 0.638,-0.659 0.985,-0.827c0.347,-0.167 0.732,-0.251 1.157,-0.251c0.93,0 1.559,0.325 1.885,0.974c0.18,0.355 0.27,0.863 0.27,1.524l0,4.205l-1.121,0l0,-4.132c0,-0.4 -0.059,-0.722 -0.177,-0.967c-0.196,-0.408 -0.551,-0.612 -1.065,-0.612c-0.261,0 -0.476,0.027 -0.643,0.08c-0.302,0.089 -0.567,0.269 -0.796,0.538c-0.183,0.216 -0.303,0.44 -0.358,0.67c-0.055,0.231 -0.082,0.561 -0.082,0.989l0,3.434l-1.102,0l0,-6.556Z" style="fill-rule:nonzero;"/></g><path d="M835.417,543.333c0,-36.564 -29.686,-66.25 -66.25,-66.25l-700.834,0c-36.564,0 -66.25,29.686 -66.25,66.25l0,309.167c0,36.564 29.686,66.25 66.25,66.25l700.834,0c36.564,0 66.25,-29.686 66.25,-66.25l0,-309.167Z" style="fill:#fff;stroke:#000;stroke-width:4.17px;"/><g transform="matrix(11.5594,0,0,11.5594,415.498,667.979)"><path d="M-32.79,-9.308l4.189,0c0.827,0 1.495,0.234 2.002,0.7c0.507,0.467 0.76,1.123 0.76,1.968c0,0.726 -0.226,1.359 -0.678,1.897c-0.452,0.539 -1.147,0.808 -2.084,0.808l-2.928,0l0,3.935l-1.261,0l0,-9.308Zm5.678,2.674c0,-0.684 -0.254,-1.149 -0.761,-1.394c-0.279,-0.131 -0.661,-0.196 -1.147,-0.196l-2.509,0l0,3.225l2.509,0c0.566,0 1.026,-0.121 1.378,-0.361c0.353,-0.241 0.53,-0.666 0.53,-1.274Z" style="fill-rule:nonzero;"/><path d="M-24.375,-6.786l1.083,0l0,1.172c0.089,-0.228 0.306,-0.506 0.653,-0.833c0.346,-0.327 0.745,-0.491 1.197,-0.491c0.022,0 0.057,0.002 0.108,0.006c0.051,0.004 0.137,0.013 0.26,0.026l0,1.203c-0.068,-0.012 -0.13,-0.021 -0.187,-0.025c-0.057,-0.004 -0.119,-0.006 -0.187,-0.006c-0.574,0 -1.016,0.185 -1.324,0.554c-0.309,0.37 -0.463,0.795 -0.463,1.277l0,3.903l-1.14,0l0,-6.786Z" style="fill-rule:nonzero;"/><path d="M-17.26,-6.938c0.482,0 0.949,0.113 1.401,0.339c0.452,0.226 0.796,0.518 1.032,0.877c0.228,0.343 0.381,0.742 0.457,1.198c0.067,0.313 0.101,0.811 0.101,1.495l-4.974,0c0.021,0.689 0.184,1.241 0.488,1.657c0.304,0.416 0.775,0.624 1.413,0.624c0.596,0 1.071,-0.196 1.426,-0.589c0.202,-0.228 0.346,-0.492 0.43,-0.792l1.122,0c-0.03,0.249 -0.128,0.527 -0.295,0.833c-0.167,0.307 -0.353,0.557 -0.56,0.751c-0.347,0.338 -0.776,0.566 -1.287,0.684c-0.274,0.068 -0.585,0.102 -0.931,0.102c-0.845,0 -1.561,-0.308 -2.148,-0.922c-0.587,-0.615 -0.881,-1.475 -0.881,-2.582c0,-1.09 0.296,-1.975 0.887,-2.655c0.592,-0.68 1.365,-1.02 2.319,-1.02Zm1.819,3.003c-0.047,-0.494 -0.154,-0.889 -0.323,-1.185c-0.313,-0.549 -0.835,-0.823 -1.565,-0.823c-0.524,0 -0.964,0.189 -1.318,0.567c-0.355,0.378 -0.543,0.858 -0.564,1.441l3.77,0Z" style="fill-rule:nonzero;"/><path d="M-10.005,-0.767c0.532,0 0.975,-0.222 1.328,-0.668c0.352,-0.446 0.529,-1.112 0.529,-1.999c0,-0.541 -0.078,-1.006 -0.235,-1.394c-0.295,-0.748 -0.836,-1.122 -1.622,-1.122c-0.79,0 -1.33,0.395 -1.622,1.185c-0.156,0.423 -0.234,0.959 -0.234,1.61c0,0.523 0.078,0.969 0.234,1.337c0.296,0.701 0.837,1.051 1.622,1.051Zm-2.952,-5.987l1.108,0l0,0.899c0.228,-0.308 0.478,-0.547 0.748,-0.716c0.384,-0.253 0.836,-0.38 1.356,-0.38c0.769,0 1.421,0.295 1.958,0.884c0.536,0.589 0.805,1.431 0.805,2.525c0,1.479 -0.387,2.535 -1.16,3.168c-0.49,0.401 -1.06,0.602 -1.711,0.602c-0.511,0 -0.94,-0.112 -1.286,-0.336c-0.203,-0.126 -0.429,-0.344 -0.678,-0.652l0,3.466l-1.14,0l0,-9.46Z" style="fill-rule:nonzero;"/><path d="M-4.777,-1.806c0,0.33 0.12,0.589 0.361,0.78c0.24,0.19 0.526,0.285 0.855,0.285c0.401,0 0.79,-0.093 1.166,-0.279c0.634,-0.308 0.95,-0.813 0.95,-1.514l0,-0.919c-0.139,0.088 -0.319,0.162 -0.538,0.222c-0.22,0.059 -0.435,0.101 -0.647,0.126l-0.69,0.089c-0.414,0.055 -0.725,0.141 -0.932,0.26c-0.35,0.198 -0.525,0.515 -0.525,0.95Zm2.762,-2.306c0.262,-0.034 0.437,-0.144 0.526,-0.33c0.051,-0.101 0.076,-0.247 0.076,-0.437c0,-0.388 -0.138,-0.67 -0.415,-0.846c-0.277,-0.175 -0.673,-0.263 -1.188,-0.263c-0.596,0 -1.018,0.161 -1.267,0.482c-0.14,0.177 -0.23,0.441 -0.273,0.792l-1.064,0c0.021,-0.836 0.292,-1.418 0.814,-1.746c0.522,-0.327 1.127,-0.491 1.815,-0.491c0.799,0 1.447,0.152 1.946,0.456c0.494,0.305 0.741,0.778 0.741,1.42l0,3.909c0,0.118 0.024,0.213 0.073,0.285c0.048,0.072 0.151,0.108 0.307,0.108c0.051,0 0.108,-0.003 0.171,-0.01c0.063,-0.006 0.131,-0.015 0.203,-0.028l0,0.843c-0.178,0.05 -0.313,0.082 -0.406,0.095c-0.093,0.012 -0.219,0.019 -0.38,0.019c-0.393,0 -0.678,-0.14 -0.855,-0.418c-0.093,-0.148 -0.159,-0.357 -0.197,-0.628c-0.232,0.304 -0.566,0.568 -1.001,0.792c-0.435,0.224 -0.914,0.336 -1.438,0.336c-0.629,0 -1.144,-0.191 -1.543,-0.573c-0.399,-0.383 -0.599,-0.861 -0.599,-1.435c0,-0.63 0.197,-1.118 0.59,-1.464c0.392,-0.346 0.908,-0.56 1.546,-0.64l1.818,-0.228Z" style="fill-rule:nonzero;"/><path d="M1.597,-6.786l1.083,0l0,1.172c0.089,-0.228 0.306,-0.506 0.653,-0.833c0.346,-0.327 0.745,-0.491 1.197,-0.491c0.021,0 0.057,0.002 0.108,0.006c0.051,0.004 0.137,0.013 0.26,0.026l0,1.203c-0.068,-0.012 -0.13,-0.021 -0.187,-0.025c-0.057,-0.004 -0.119,-0.006 -0.187,-0.006c-0.574,0 -1.016,0.185 -1.324,0.554c-0.309,0.37 -0.463,0.795 -0.463,1.277l0,3.903l-1.14,0l0,-6.786Z" style="fill-rule:nonzero;"/><path d="M6.761,-1.806c0,0.33 0.12,0.589 0.361,0.78c0.241,0.19 0.526,0.285 0.855,0.285c0.402,0 0.79,-0.093 1.166,-0.279c0.634,-0.308 0.951,-0.813 0.951,-1.514l0,-0.919c-0.14,0.088 -0.319,0.162 -0.539,0.222c-0.22,0.059 -0.435,0.101 -0.646,0.126l-0.691,0.089c-0.414,0.055 -0.724,0.141 -0.931,0.26c-0.351,0.198 -0.526,0.515 -0.526,0.95Zm2.762,-2.306c0.262,-0.034 0.437,-0.144 0.526,-0.33c0.051,-0.101 0.076,-0.247 0.076,-0.437c0,-0.388 -0.138,-0.67 -0.415,-0.846c-0.276,-0.175 -0.673,-0.263 -1.188,-0.263c-0.595,0 -1.018,0.161 -1.267,0.482c-0.139,0.177 -0.23,0.441 -0.273,0.792l-1.064,0c0.021,-0.836 0.293,-1.418 0.814,-1.746c0.522,-0.327 1.127,-0.491 1.815,-0.491c0.799,0 1.447,0.152 1.946,0.456c0.494,0.305 0.741,0.778 0.741,1.42l0,3.909c0,0.118 0.024,0.213 0.073,0.285c0.048,0.072 0.151,0.108 0.307,0.108c0.051,0 0.108,-0.003 0.171,-0.01c0.064,-0.006 0.131,-0.015 0.203,-0.028l0,0.843c-0.177,0.05 -0.313,0.082 -0.405,0.095c-0.093,0.012 -0.22,0.019 -0.381,0.019c-0.392,0 -0.678,-0.14 -0.855,-0.418c-0.093,-0.148 -0.158,-0.357 -0.196,-0.628c-0.233,0.304 -0.566,0.568 -1.002,0.792c-0.435,0.224 -0.914,0.336 -1.438,0.336c-0.629,0 -1.144,-0.191 -1.543,-0.573c-0.399,-0.383 -0.599,-0.861 -0.599,-1.435c0,-0.63 0.197,-1.118 0.59,-1.464c0.393,-0.346 0.908,-0.56 1.546,-0.64l1.818,-0.228Z" style="fill-rule:nonzero;"/><path d="M13.331,-8.681l1.153,0l0,1.895l1.084,0l0,0.931l-1.084,0l0,4.429c0,0.237 0.081,0.395 0.241,0.476c0.089,0.046 0.237,0.069 0.444,0.069c0.055,0 0.114,-0.001 0.177,-0.003c0.064,-0.002 0.137,-0.007 0.222,-0.016l0,0.9c-0.131,0.038 -0.267,0.065 -0.409,0.082c-0.141,0.017 -0.294,0.026 -0.459,0.026c-0.532,0 -0.893,-0.137 -1.084,-0.409c-0.19,-0.272 -0.285,-0.626 -0.285,-1.061l0,-4.493l-0.918,0l0,-0.931l0.918,0l0,-1.895Z" style="fill-rule:nonzero;"/><path d="M19.401,-0.735c0.756,0 1.275,-0.286 1.556,-0.859c0.281,-0.572 0.421,-1.209 0.421,-1.91c0,-0.634 -0.101,-1.149 -0.304,-1.546c-0.321,-0.625 -0.874,-0.938 -1.66,-0.938c-0.697,0 -1.204,0.266 -1.521,0.799c-0.316,0.532 -0.475,1.174 -0.475,1.926c0,0.722 0.159,1.324 0.475,1.806c0.317,0.481 0.82,0.722 1.508,0.722Zm0.045,-6.247c0.874,0 1.613,0.291 2.217,0.874c0.604,0.583 0.906,1.44 0.906,2.572c0,1.094 -0.266,1.998 -0.798,2.712c-0.532,0.714 -1.358,1.071 -2.477,1.071c-0.934,0 -1.675,-0.316 -2.224,-0.947c-0.549,-0.632 -0.824,-1.48 -0.824,-2.544c0,-1.141 0.289,-2.049 0.868,-2.725c0.579,-0.676 1.356,-1.013 2.332,-1.013Z" style="fill-rule:nonzero;"/><path d="M23.957,-6.786l1.084,0l0,1.172c0.088,-0.228 0.306,-0.506 0.652,-0.833c0.347,-0.327 0.746,-0.491 1.198,-0.491c0.021,0 0.057,0.002 0.107,0.006c0.051,0.004 0.138,0.013 0.26,0.026l0,1.203c-0.067,-0.012 -0.13,-0.021 -0.187,-0.025c-0.057,-0.004 -0.119,-0.006 -0.187,-0.006c-0.574,0 -1.016,0.185 -1.324,0.554c-0.308,0.37 -0.462,0.795 -0.462,1.277l0,3.903l-1.141,0l0,-6.786Z" style="fill-rule:nonzero;"/><path d="M32.486,-6.786l1.26,0c-0.16,0.435 -0.517,1.428 -1.07,2.978c-0.414,1.166 -0.761,2.116 -1.04,2.851c-0.658,1.732 -1.123,2.788 -1.393,3.168c-0.271,0.38 -0.735,0.571 -1.394,0.571c-0.161,0 -0.284,-0.007 -0.371,-0.019c-0.087,-0.013 -0.193,-0.036 -0.32,-0.07l0,-1.039c0.198,0.055 0.342,0.088 0.431,0.101c0.089,0.013 0.167,0.019 0.234,0.019c0.211,0 0.367,-0.035 0.466,-0.104c0.099,-0.07 0.183,-0.156 0.25,-0.257c0.021,-0.034 0.097,-0.207 0.228,-0.52c0.131,-0.312 0.226,-0.545 0.285,-0.697l-2.509,-6.982l1.293,0l1.818,5.525l1.832,-5.525Z" style="fill-rule:nonzero;"/><path d="M-28.253,11.899c0.427,0 0.777,-0.044 1.052,-0.133c0.49,-0.164 0.891,-0.481 1.204,-0.95c0.249,-0.376 0.428,-0.858 0.538,-1.445c0.064,-0.35 0.095,-0.676 0.095,-0.976c0,-1.153 -0.229,-2.048 -0.687,-2.686c-0.458,-0.638 -1.197,-0.957 -2.215,-0.957l-2.236,0l0,7.147l2.249,0Zm-3.517,-8.23l3.77,0c1.28,0 2.273,0.454 2.978,1.362c0.63,0.819 0.945,1.869 0.945,3.149c0,0.988 -0.186,1.882 -0.558,2.68c-0.655,1.411 -1.78,2.116 -3.377,2.116l-3.758,0l0,-9.307Z" style="fill-rule:nonzero;"/><path d="M-19.915,12.241c0.757,0 1.275,-0.286 1.556,-0.858c0.281,-0.572 0.421,-1.209 0.421,-1.91c0,-0.634 -0.101,-1.149 -0.304,-1.546c-0.321,-0.626 -0.874,-0.938 -1.66,-0.938c-0.697,0 -1.204,0.266 -1.521,0.798c-0.316,0.532 -0.475,1.174 -0.475,1.926c0,0.723 0.159,1.325 0.475,1.806c0.317,0.482 0.82,0.722 1.508,0.722Zm0.045,-6.247c0.874,0 1.613,0.291 2.217,0.874c0.604,0.583 0.907,1.441 0.907,2.573c0,1.094 -0.267,1.998 -0.799,2.712c-0.532,0.714 -1.358,1.071 -2.477,1.071c-0.934,0 -1.675,-0.316 -2.224,-0.948c-0.549,-0.631 -0.824,-1.479 -0.824,-2.544c0,-1.14 0.289,-2.048 0.868,-2.724c0.579,-0.676 1.356,-1.014 2.332,-1.014Z" style="fill-rule:nonzero;"/><path d="M-12.774,5.994c0.765,0 1.387,0.186 1.866,0.558c0.48,0.371 0.768,1.011 0.865,1.919l-1.109,0c-0.067,-0.418 -0.221,-0.765 -0.462,-1.042c-0.241,-0.277 -0.627,-0.415 -1.16,-0.415c-0.726,0 -1.246,0.355 -1.558,1.065c-0.203,0.46 -0.305,1.028 -0.305,1.704c0,0.68 0.144,1.252 0.431,1.717c0.288,0.465 0.74,0.697 1.356,0.697c0.473,0 0.848,-0.145 1.125,-0.434c0.277,-0.289 0.468,-0.685 0.573,-1.188l1.109,0c-0.127,0.9 -0.443,1.558 -0.95,1.974c-0.507,0.416 -1.156,0.624 -1.945,0.624c-0.888,0 -1.595,-0.324 -2.123,-0.973c-0.528,-0.648 -0.792,-1.458 -0.792,-2.43c0,-1.191 0.289,-2.118 0.868,-2.781c0.579,-0.663 1.316,-0.995 2.211,-0.995Z" style="fill-rule:nonzero;"/><path d="M-7.762,6.19l0,4.505c0,0.347 0.055,0.63 0.165,0.85c0.203,0.405 0.581,0.608 1.134,0.608c0.794,0 1.335,-0.355 1.622,-1.065c0.156,-0.38 0.235,-0.902 0.235,-1.565l0,-3.333l1.14,0l0,6.786l-1.077,0l0.013,-1.001c-0.148,0.258 -0.332,0.476 -0.552,0.653c-0.435,0.355 -0.963,0.532 -1.584,0.532c-0.967,0 -1.626,-0.323 -1.977,-0.969c-0.19,-0.347 -0.285,-0.809 -0.285,-1.388l0,-4.613l1.166,0Z" style="fill-rule:nonzero;"/><path d="M-1.685,6.19l1.127,0l0,0.964c0.271,-0.334 0.516,-0.577 0.735,-0.729c0.376,-0.258 0.803,-0.387 1.28,-0.387c0.541,0 0.976,0.133 1.306,0.4c0.185,0.152 0.354,0.375 0.506,0.671c0.254,-0.363 0.552,-0.632 0.894,-0.808c0.342,-0.175 0.726,-0.263 1.153,-0.263c0.912,0 1.533,0.33 1.863,0.989c0.177,0.355 0.266,0.832 0.266,1.432l0,4.517l-1.185,0l0,-4.714c0,-0.452 -0.113,-0.762 -0.339,-0.931c-0.226,-0.169 -0.501,-0.253 -0.827,-0.253c-0.447,0 -0.833,0.149 -1.156,0.449c-0.323,0.3 -0.485,0.801 -0.485,1.502l0,3.947l-1.159,0l0,-4.429c0,-0.46 -0.055,-0.796 -0.165,-1.007c-0.173,-0.317 -0.496,-0.475 -0.969,-0.475c-0.431,0 -0.823,0.167 -1.176,0.5c-0.353,0.334 -0.529,0.938 -0.529,1.813l0,3.598l-1.14,0l0,-6.786Z" style="fill-rule:nonzero;"/><path d="M11.95,6.038c0.482,0 0.948,0.113 1.4,0.339c0.452,0.226 0.797,0.519 1.033,0.878c0.228,0.342 0.38,0.741 0.456,1.197c0.068,0.313 0.102,0.811 0.102,1.496l-4.974,0c0.021,0.688 0.184,1.241 0.488,1.657c0.304,0.416 0.775,0.624 1.413,0.624c0.595,0 1.07,-0.197 1.425,-0.589c0.203,-0.229 0.347,-0.493 0.431,-0.792l1.122,0c-0.03,0.249 -0.128,0.526 -0.295,0.833c-0.167,0.306 -0.354,0.556 -0.561,0.751c-0.346,0.337 -0.775,0.566 -1.286,0.684c-0.275,0.067 -0.585,0.101 -0.931,0.101c-0.845,0 -1.561,-0.307 -2.148,-0.922c-0.588,-0.614 -0.881,-1.475 -0.881,-2.582c0,-1.089 0.296,-1.974 0.887,-2.655c0.591,-0.68 1.364,-1.02 2.319,-1.02Zm1.818,3.004c-0.046,-0.495 -0.154,-0.889 -0.323,-1.185c-0.312,-0.549 -0.834,-0.824 -1.565,-0.824c-0.523,0 -0.963,0.189 -1.318,0.567c-0.354,0.378 -0.542,0.859 -0.564,1.442l3.77,0Z" style="fill-rule:nonzero;"/><path d="M16.341,6.19l1.083,0l0,0.964c0.322,-0.398 0.662,-0.683 1.021,-0.856c0.359,-0.173 0.758,-0.26 1.197,-0.26c0.963,0 1.614,0.336 1.952,1.008c0.186,0.367 0.278,0.893 0.278,1.578l0,4.352l-1.159,0l0,-4.276c0,-0.414 -0.061,-0.748 -0.184,-1.002c-0.203,-0.422 -0.57,-0.633 -1.102,-0.633c-0.271,0 -0.492,0.027 -0.666,0.082c-0.312,0.093 -0.587,0.279 -0.823,0.558c-0.19,0.224 -0.314,0.455 -0.371,0.694c-0.057,0.238 -0.086,0.579 -0.086,1.023l0,3.554l-1.14,0l0,-6.786Z" style="fill-rule:nonzero;"/><path d="M23.786,4.296l1.153,0l0,1.894l1.084,0l0,0.932l-1.084,0l0,4.429c0,0.236 0.08,0.395 0.241,0.475c0.089,0.047 0.236,0.07 0.443,0.07c0.055,0 0.115,-0.001 0.178,-0.003c0.063,-0.003 0.137,-0.008 0.222,-0.016l0,0.899c-0.131,0.038 -0.268,0.066 -0.409,0.083c-0.142,0.017 -0.295,0.025 -0.459,0.025c-0.533,0 -0.894,-0.136 -1.084,-0.408c-0.19,-0.273 -0.285,-0.627 -0.285,-1.062l0,-4.492l-0.919,0l0,-0.932l0.919,0l0,-1.894Z" style="fill-rule:nonzero;"/><path d="M27.841,10.848c0.034,0.38 0.129,0.671 0.285,0.874c0.287,0.367 0.786,0.551 1.496,0.551c0.422,0 0.794,-0.092 1.115,-0.275c0.321,-0.184 0.481,-0.468 0.481,-0.853c0,-0.291 -0.129,-0.513 -0.386,-0.665c-0.165,-0.093 -0.49,-0.201 -0.976,-0.323l-0.906,-0.228c-0.579,-0.144 -1.005,-0.304 -1.28,-0.482c-0.49,-0.308 -0.735,-0.735 -0.735,-1.28c0,-0.642 0.231,-1.161 0.694,-1.558c0.462,-0.397 1.084,-0.596 1.866,-0.596c1.022,0 1.759,0.3 2.211,0.9c0.283,0.38 0.42,0.79 0.412,1.229l-1.077,0c-0.021,-0.258 -0.112,-0.492 -0.273,-0.703c-0.261,-0.3 -0.716,-0.45 -1.362,-0.45c-0.431,0 -0.757,0.082 -0.979,0.247c-0.222,0.165 -0.332,0.382 -0.332,0.653c0,0.295 0.145,0.532 0.437,0.709c0.169,0.106 0.418,0.199 0.747,0.279l0.754,0.184c0.82,0.198 1.369,0.39 1.648,0.576c0.443,0.292 0.665,0.75 0.665,1.375c0,0.604 -0.229,1.126 -0.687,1.565c-0.459,0.44 -1.157,0.659 -2.094,0.659c-1.01,0 -1.725,-0.229 -2.145,-0.687c-0.421,-0.459 -0.645,-1.026 -0.675,-1.701l1.096,0Z" style="fill-rule:nonzero;"/></g><g id="Legal-Prose" serif:id="Legal Prose"><path d="M1985.42,1059.04c0,-49.673 -40.328,-90 -90,-90l-511.667,0c-49.672,0 -90,40.327 -90,90l0,420c0,49.672 40.328,90 90,90l511.667,0c49.672,0 90,-40.328 90,-90l0,-420Z" style="fill:#fff;stroke:#000;stroke-width:4.17px;"/><g transform="matrix(17.5989,0,0,17.5989,1647.45,1270.99)"><path d="M-9.778,-6.114l0.828,0l0,5.386l3.097,0l0,0.728l-3.925,0l0,-6.114Z" style="fill-rule:nonzero;"/><path d="M-3.282,-4.557c0.317,0 0.623,0.074 0.92,0.223c0.297,0.148 0.523,0.34 0.679,0.576c0.149,0.225 0.249,0.487 0.299,0.787c0.045,0.205 0.067,0.532 0.067,0.982l-3.267,0c0.014,0.452 0.121,0.815 0.32,1.088c0.2,0.273 0.509,0.41 0.928,0.41c0.392,0 0.704,-0.129 0.937,-0.387c0.133,-0.15 0.227,-0.323 0.283,-0.52l0.736,0c-0.019,0.163 -0.084,0.346 -0.193,0.547c-0.11,0.201 -0.233,0.365 -0.368,0.493c-0.228,0.222 -0.51,0.372 -0.845,0.45c-0.181,0.044 -0.385,0.066 -0.612,0.066c-0.555,0 -1.025,-0.202 -1.411,-0.605c-0.386,-0.404 -0.578,-0.969 -0.578,-1.696c0,-0.716 0.194,-1.297 0.582,-1.744c0.389,-0.447 0.896,-0.67 1.523,-0.67Zm1.195,1.973c-0.031,-0.325 -0.101,-0.584 -0.212,-0.779c-0.206,-0.36 -0.548,-0.541 -1.028,-0.541c-0.344,0 -0.633,0.124 -0.866,0.373c-0.233,0.248 -0.356,0.564 -0.37,0.947l2.476,0Z" style="fill-rule:nonzero;"/><path d="M1.176,-4.536c0.349,0 0.654,0.086 0.915,0.258c0.142,0.097 0.286,0.238 0.433,0.424l0,-0.562l0.691,0l0,4.054c0,0.566 -0.083,1.013 -0.25,1.34c-0.31,0.605 -0.897,0.907 -1.76,0.907c-0.48,0 -0.884,-0.107 -1.211,-0.322c-0.328,-0.215 -0.511,-0.552 -0.55,-1.009l0.762,0c0.036,0.199 0.108,0.353 0.216,0.461c0.17,0.167 0.436,0.25 0.799,0.25c0.575,0 0.951,-0.202 1.128,-0.607c0.106,-0.239 0.154,-0.665 0.146,-1.278c-0.15,0.227 -0.33,0.397 -0.541,0.508c-0.211,0.111 -0.49,0.166 -0.837,0.166c-0.482,0 -0.905,-0.171 -1.267,-0.514c-0.362,-0.343 -0.543,-0.909 -0.543,-1.7c0,-0.746 0.182,-1.329 0.547,-1.748c0.365,-0.419 0.806,-0.628 1.322,-0.628Zm1.348,2.289c0,-0.552 -0.114,-0.962 -0.341,-1.228c-0.228,-0.266 -0.518,-0.4 -0.87,-0.4c-0.527,0 -0.888,0.247 -1.082,0.741c-0.103,0.264 -0.154,0.609 -0.154,1.036c0,0.503 0.102,0.885 0.306,1.147c0.204,0.262 0.478,0.393 0.822,0.393c0.538,0 0.917,-0.242 1.136,-0.728c0.122,-0.275 0.183,-0.595 0.183,-0.961Z" style="fill-rule:nonzero;"/><path d="M4.917,-1.186c0,0.216 0.079,0.387 0.237,0.512c0.158,0.125 0.346,0.187 0.562,0.187c0.264,0 0.519,-0.061 0.766,-0.183c0.416,-0.203 0.624,-0.534 0.624,-0.995l0,-0.603c-0.091,0.058 -0.209,0.107 -0.354,0.146c-0.144,0.038 -0.285,0.066 -0.424,0.083l-0.454,0.058c-0.272,0.036 -0.476,0.093 -0.611,0.171c-0.231,0.13 -0.346,0.338 -0.346,0.624Zm1.815,-1.515c0.172,-0.022 0.287,-0.094 0.345,-0.216c0.033,-0.067 0.05,-0.163 0.05,-0.288c0,-0.255 -0.091,-0.44 -0.273,-0.555c-0.181,-0.115 -0.441,-0.173 -0.78,-0.173c-0.391,0 -0.669,0.106 -0.832,0.316c-0.092,0.117 -0.151,0.29 -0.179,0.521l-0.699,0c0.013,-0.55 0.192,-0.932 0.534,-1.147c0.343,-0.215 0.74,-0.322 1.193,-0.322c0.524,0 0.95,0.099 1.277,0.299c0.325,0.2 0.487,0.511 0.487,0.932l0,2.568c0,0.078 0.016,0.14 0.048,0.188c0.032,0.047 0.099,0.07 0.202,0.07c0.033,0 0.071,-0.002 0.112,-0.006c0.042,-0.004 0.086,-0.01 0.134,-0.019l0,0.554c-0.117,0.033 -0.206,0.054 -0.267,0.062c-0.061,0.009 -0.144,0.013 -0.25,0.013c-0.258,0 -0.445,-0.092 -0.561,-0.275c-0.061,-0.097 -0.104,-0.234 -0.129,-0.412c-0.153,0.2 -0.372,0.373 -0.658,0.52c-0.286,0.147 -0.601,0.221 -0.945,0.221c-0.413,0 -0.751,-0.126 -1.013,-0.377c-0.262,-0.251 -0.393,-0.565 -0.393,-0.942c0,-0.414 0.129,-0.734 0.387,-0.962c0.258,-0.227 0.596,-0.367 1.015,-0.42l1.195,-0.15Z" style="fill-rule:nonzero;"/><rect x="9.104" y="-6.114" width="0.749" height="6.114" style="fill-rule:nonzero;"/><path d="M-10.404,2.41l2.751,0c0.543,0 0.982,0.153 1.315,0.46c0.333,0.306 0.499,0.737 0.499,1.292c0,0.477 -0.148,0.892 -0.445,1.246c-0.297,0.354 -0.754,0.531 -1.369,0.531l-1.923,0l0,2.584l-0.828,0l0,-6.113Zm3.729,1.756c0,-0.45 -0.167,-0.755 -0.5,-0.916c-0.183,-0.086 -0.434,-0.129 -0.753,-0.129l-1.648,0l0,2.119l1.648,0c0.372,0 0.673,-0.079 0.905,-0.238c0.232,-0.158 0.348,-0.437 0.348,-0.836Z" style="fill-rule:nonzero;"/><path d="M-4.878,4.066l0.712,0l0,0.77c0.058,-0.15 0.201,-0.332 0.429,-0.547c0.227,-0.215 0.489,-0.323 0.786,-0.323c0.014,0 0.038,0.002 0.071,0.004c0.033,0.003 0.09,0.009 0.171,0.017l0,0.791c-0.045,-0.009 -0.086,-0.014 -0.123,-0.017c-0.038,-0.003 -0.078,-0.004 -0.123,-0.004c-0.377,0 -0.667,0.121 -0.87,0.364c-0.202,0.243 -0.303,0.522 -0.303,0.839l0,2.563l-0.75,0l0,-4.457Z" style="fill-rule:nonzero;"/><path d="M-0.291,8.04c0.496,0 0.837,-0.187 1.021,-0.563c0.185,-0.376 0.277,-0.795 0.277,-1.255c0,-0.416 -0.066,-0.755 -0.2,-1.016c-0.21,-0.41 -0.574,-0.616 -1.09,-0.616c-0.458,0 -0.791,0.175 -0.999,0.525c-0.208,0.349 -0.312,0.771 -0.312,1.265c0,0.474 0.104,0.87 0.312,1.186c0.208,0.316 0.538,0.474 0.991,0.474Zm0.029,-4.103c0.574,0 1.06,0.191 1.456,0.574c0.397,0.383 0.596,0.946 0.596,1.69c0,0.719 -0.175,1.312 -0.525,1.781c-0.349,0.469 -0.892,0.704 -1.627,0.704c-0.613,0 -1.1,-0.208 -1.461,-0.623c-0.361,-0.414 -0.541,-0.971 -0.541,-1.671c0,-0.749 0.19,-1.345 0.57,-1.789c0.38,-0.444 0.891,-0.666 1.532,-0.666Z" style="fill-rule:nonzero;"/><path d="M3.125,7.125c0.023,0.25 0.085,0.441 0.188,0.574c0.188,0.242 0.516,0.362 0.982,0.362c0.277,0 0.522,-0.06 0.732,-0.181c0.211,-0.12 0.317,-0.307 0.317,-0.559c0,-0.192 -0.085,-0.338 -0.254,-0.437c-0.108,-0.062 -0.322,-0.132 -0.641,-0.213l-0.595,-0.15c-0.38,-0.094 -0.661,-0.199 -0.841,-0.316c-0.322,-0.202 -0.483,-0.483 -0.483,-0.841c0,-0.421 0.152,-0.762 0.456,-1.023c0.304,-0.261 0.712,-0.392 1.226,-0.392c0.671,0 1.155,0.197 1.452,0.591c0.186,0.25 0.276,0.519 0.271,0.808l-0.708,0c-0.014,-0.169 -0.073,-0.323 -0.179,-0.462c-0.172,-0.197 -0.47,-0.296 -0.895,-0.296c-0.283,0 -0.497,0.055 -0.643,0.163c-0.145,0.108 -0.218,0.251 -0.218,0.428c0,0.195 0.096,0.35 0.287,0.466c0.111,0.07 0.275,0.131 0.491,0.184l0.495,0.12c0.539,0.131 0.899,0.257 1.082,0.379c0.292,0.191 0.437,0.492 0.437,0.903c0,0.397 -0.15,0.74 -0.451,1.028c-0.301,0.289 -0.76,0.433 -1.376,0.433c-0.663,0 -1.132,-0.151 -1.408,-0.452c-0.276,-0.301 -0.424,-0.673 -0.444,-1.117l0.72,0Z" style="fill-rule:nonzero;"/><path d="M8.798,3.966c0.316,0 0.623,0.074 0.92,0.223c0.297,0.148 0.523,0.34 0.678,0.576c0.15,0.225 0.25,0.487 0.3,0.787c0.044,0.205 0.066,0.532 0.066,0.982l-3.267,0c0.014,0.452 0.121,0.815 0.321,1.088c0.2,0.274 0.509,0.41 0.928,0.41c0.391,0 0.703,-0.129 0.936,-0.387c0.133,-0.15 0.228,-0.323 0.283,-0.52l0.737,0c-0.02,0.164 -0.084,0.346 -0.194,0.547c-0.109,0.201 -0.232,0.366 -0.368,0.493c-0.227,0.222 -0.509,0.372 -0.845,0.45c-0.18,0.044 -0.384,0.066 -0.612,0.066c-0.554,0 -1.025,-0.201 -1.41,-0.605c-0.386,-0.404 -0.579,-0.969 -0.579,-1.696c0,-0.716 0.194,-1.297 0.583,-1.744c0.388,-0.447 0.896,-0.67 1.523,-0.67Zm1.194,1.973c-0.03,-0.325 -0.101,-0.584 -0.212,-0.778c-0.205,-0.361 -0.548,-0.541 -1.028,-0.541c-0.344,0 -0.632,0.124 -0.865,0.372c-0.234,0.248 -0.357,0.564 -0.371,0.947l2.476,0Z" style="fill-rule:nonzero;"/></g></g></g></svg>