<?xml version="1.0" encoding="UTF-8" standalone="no"?>
<!DOCTYPE svg PUBLIC "-//W3C//DTD SVG 1.1//EN" "http://www.w3.org/Graphics/SVG/1.1/DTD/svg11.dtd">
<svg width="100%" height="100%" viewBox="0 0 3508 2481" version="1.1" xmlns="http://www.w3.org/2000/svg" xmlns:xlink="http://www.w3.org/1999/xlink" xml:space="preserve" xmlns:serif="http://www.serif.com/" style="fill-rule:evenodd;clip-rule:evenodd;stroke-linejoin:round;stroke-miterlimit:1.41421;">
    <g transform="matrix(1,0,0,1,-2.15579,494.99)">
        <g transform="matrix(1,0,0,1,568.961,-435.869)">
            <ellipse cx="1187.13" cy="1178.89" rx="1181.34" ry="1181.03" style="fill:rgb(194,194,194);fill-opacity:0.25;"/>
        </g>
        <g id="SCs" transform="matrix(1,0,0,1,-101.738,34.5146)">
            <g transform="matrix(2.5,0,0,2.47398,-2307.41,-2450.53)">
                <path d="M2138.63,1276.91C2138.63,1070.08 2006.87,886.775 1812.25,822.863L1666.29,1276.91L2138.63,1276.91Z" style="fill:rgb(151,198,255);fill-opacity:0.274569;"/>
            </g>
            <g transform="matrix(1,0,0,0.989593,192.032,-555.106)">
                <path d="M2138.63,1276.91C2138.63,1070.08 2006.87,886.775 1812.25,822.863L1666.29,1276.91L2138.63,1276.91Z" style="fill:rgb(151,198,255);"/>
            </g>
        </g>
        <g transform="matrix(1,0,0,1,-409.539,-76.1483)">
            <text x="2490.81px" y="425.044px" style="font-family:'ArialMT', 'Arial', sans-serif;font-size:150px;">Y<tspan x="2582.58px 2666px " y="425.044px 425.044px ">ul</tspan></text>
        </g>
        <g transform="matrix(1,0,0,1,-130.574,-506.256)">
            <text x="2343.97px" y="1018.6px" style="font-family:'ArialMT', 'Arial', sans-serif;font-size:150px;">V<tspan x="2438.45px 2513.45px " y="1018.6px 1018.6px ">yp</tspan>er</text>
        </g>
        <g transform="matrix(1,0,0,1,-69.7072,-109.592)">
            <text x="2332.92px" y="788.617px" style="font-family:'ArialMT', 'Arial', sans-serif;font-size:150px;">Solidity</text>
        </g>
        <g transform="matrix(1.20147,0,0,1.20147,-296.877,-721.429)">
            <text x="1799.29px" y="1143.22px" style="font-family:'ArialMT', 'Arial', sans-serif;font-size:152.59px;">SC</text>
        </g>
        <g transform="matrix(1,0,0,1,6.19586,-83.9549)">
            <g transform="matrix(2.50054,0,0,2.47398,-2416.84,-2327.85)">
                <path d="M1284.16,1557.52C1373.04,1681.15 1515.1,1754.32 1666.29,1754.32C1715.86,1754.32 1765.12,1746.43 1812.25,1730.95L1666.29,1276.91L1284.16,1557.52Z" style="fill:rgb(194,194,194);fill-opacity:0.210914;"/>
            </g>
            <g transform="matrix(1,0,0,0.989593,82.5299,-432.428)">
                <path d="M1284.16,1557.52C1373.04,1681.15 1515.1,1754.32 1666.29,1754.32C1715.86,1754.32 1765.12,1746.43 1812.25,1730.95L1666.29,1276.91L1284.16,1557.52Z" style="fill:rgb(194,194,194);"/>
            </g>
        </g>
        <g transform="matrix(1,0,0,1,176.234,2.27374e-13)">
            <g transform="matrix(2.50054,0,0,2.47398,-2587.02,-2411.81)">
                <path d="M1284.16,996.292C1225.53,1077.86 1193.95,1176.09 1193.95,1276.91C1193.95,1377.73 1225.53,1475.96 1284.16,1557.52L1666.29,1276.91L1284.16,996.292Z" style="fill:rgb(106,185,255);fill-opacity:0.25;"/>
            </g>
            <g transform="matrix(1,0,0,0.989593,-86.6722,-516.383)">
                <path d="M1284.16,996.292C1225.53,1077.86 1193.95,1176.09 1193.95,1276.91C1193.95,1377.73 1225.53,1475.96 1284.16,1557.52L1666.29,1276.91L1284.16,996.292Z" style="fill:rgb(106,185,255);"/>
            </g>
        </g>
        <g transform="matrix(1,0,0,1,93.6254,188.314)">
            <g transform="matrix(2.50054,0,0,2.47398,-2504.27,-2600.12)">
                <path d="M1812.25,822.863C1765.12,807.382 1715.86,799.497 1666.29,799.497C1515.1,799.497 1373.04,872.657 1284.16,996.292L1666.29,1276.91L1812.25,822.863Z" style="fill:rgb(109,144,233);fill-opacity:0.304569;"/>
            </g>
            <g transform="matrix(1,0,0,0.989593,-2.19837,-704.697)">
                <path d="M1812.25,822.863C1765.12,807.382 1715.86,799.497 1666.29,799.497C1515.1,799.497 1373.04,872.657 1284.16,996.292L1666.29,1276.91L1812.25,822.863Z" style="fill:rgb(109,144,233);"/>
            </g>
        </g>
        <g transform="matrix(1,0,0,1,31.5284,-549.526)">
            <text x="1234.98px" y="676.4px" style="font-family:'ArialMT', 'Arial', sans-serif;font-size:150px;">OpenLaw</text>
        </g>
        <g transform="matrix(1,0,0,1,-75.8792,-579.06)">
            <text x="1109.89px" y="522.152px" style="font-family:'ArialMT', 'Arial', sans-serif;font-size:150px;">AccordProject</text>
        </g>
        <g transform="matrix(1,0,0,1,73.2305,-561.662)">
            <text x="1350.38px" y="315.029px" style="font-family:'ArialMT', 'Arial', sans-serif;font-size:150px;">Legalese</text>
        </g>
        <g transform="matrix(1,0,0,1,-196.675,-88.1634)">
            <g transform="matrix(2.50054,0,0,2.47398,-2214.11,-2327.85)">
                <path d="M1812.25,1730.95C2006.87,1667.04 2138.63,1483.73 2138.63,1276.91L1666.29,1276.91L1812.25,1730.95Z" style="fill:rgb(171,195,213);"/>
            </g>
            <g transform="matrix(1.00022,0,0,0.989593,285.874,-432.428)">
                <path d="M1812.25,1730.95C2006.87,1667.04 2138.63,1483.73 2138.63,1276.91L1666.29,1276.91L1812.25,1730.95Z" style="fill:rgb(85,147,191);"/>
            </g>
        </g>
        <g transform="matrix(1,2.30684e-17,-2.30684e-17,1,70.1492,-393.298)">
            <text x="1227.99px" y="1202.24px" style="font-family:'ArialMT', 'Arial', sans-serif;font-size:183.333px;">CNL</text>
        </g>
        <g transform="matrix(1,0,0,1,126.029,-371.539)">
            <text x="1751.19px" y="1339.22px" style="font-family:'ArialMT', 'Arial', sans-serif;font-size:183.333px;">LP</text>
        </g>
        <g transform="matrix(1,0,0,1,90.1504,-445.143)">
            <text x="1391.63px" y="1546.91px" style="font-family:'ArialMT', 'Arial', sans-serif;font-size:183.333px;">FCL</text>
        </g>
        <g transform="matrix(0.871061,0,0,0.871061,223.49,-316.093)">
            <text x="1439.3px" y="955.733px" style="font-family:'ArialMT', 'Arial', sans-serif;font-size:210.471px;">SCT</text>
        </g>
    </g>
    <g transform="matrix(1,0,0,1,151.055,-63.8215)">
        <text x="1105.22px" y="1949.4px" style="font-family:'ArialMT', 'Arial', sans-serif;font-size:150px;">Formalex</text>
    </g>
    <g transform="matrix(1,0,0,1,-249.235,336.855)">
        <text x="1252.06px" y="1747px" style="font-family:'ArialMT', 'Arial', sans-serif;font-size:150px;">AnaCon</text>
    </g>
    <g transform="matrix(1,0,0,1,-107.634,-101.463)">
        <text x="2176.2px" y="2010.33px" style="font-family:'ArialMT', 'Arial', sans-serif;font-size:150px;">LPS</text>
    </g>
    <g transform="matrix(1,0,0,1,-76.1076,20.7525)">
        <text x="2202.79px" y="1703.97px" style="font-family:'ArialMT', 'Arial', sans-serif;font-size:150px;">Prolog</text>
    </g>
    <g transform="matrix(1,0,0,1,-128.899,-47.953)">
        <text x="2408.8px" y="1429.3px" style="font-family:'ArialMT', 'Arial', sans-serif;font-size:150px;">Defeasible</text>
        <text x="2450.47px" y="1584.21px" style="font-family:'ArialMT', 'Arial', sans-serif;font-size:150px;">Logic</text>
    </g>
    <g transform="matrix(1,0,0,1,-850.741,219.77)">
        <text x="2907.2px" y="454.84px" style="font-family:'ArialMT', 'Arial', sans-serif;font-size:150px;">Plutus</text>
    </g>
    <g transform="matrix(1,0,0,1,64.7426,125.519)">
        <text x="2589.52px" y="179.447px" style="font-family:'ArialMT', 'Arial', sans-serif;font-size:150px;">Ergo</text>
    </g>
    <g transform="matrix(1,0,0,1,-394.583,0.30788)">
        <text x="3083.18px" y="1007.03px" style="font-family:'ArialMT', 'Arial', sans-serif;font-size:150px;">Marlowe</text>
    </g>
    <g transform="matrix(1,0,0,1,-525.908,13.2961)">
        <text x="3059.69px" y="661.314px" style="font-family:'ArialMT', 'Arial', sans-serif;font-size:150px;">Bamboo</text>
    </g>
    <g transform="matrix(1,0,0,1,-225.31,-696.973)">
        <text x="3034.41px" y="1196.4px" style="font-family:'ArialMT', 'Arial', sans-serif;font-size:150px;">Scilla</text>
    </g>
    <g transform="matrix(1,0,0,1,-786.14,720.073)">
        <text x="3180.74px" y="123.812px" style="font-family:'ArialMT', 'Arial', sans-serif;font-size:150px;">Motoko</text>
    </g>
    <g transform="matrix(1,0,0,1,-1014.93,261.154)">
        <text x="3082.62px" y="236.439px" style="font-family:'ArialMT', 'Arial', sans-serif;font-size:150px;">Michelson</text>
    </g>
    <g transform="matrix(1,0,0,1,-886.139,-1133.77)">
        <text x="3019.51px" y="1454.52px" style="font-family:'ArialMT', 'Arial', sans-serif;font-size:150px;">DAML</text>
    </g>
    <g transform="matrix(1,0,0,1,387.815,135.656)">
        <text x="112.617px" y="114.53px" style="font-family:'ArialMT', 'Arial', sans-serif;font-size:150px;">Contractform</text>
    </g>
    <g transform="matrix(1,0,0,1,998.505,427.709)">
        <text x="141.478px" y="358.109px" style="font-family:'ArialMT', 'Arial', sans-serif;font-size:150px;">Cicero</text>
    </g>
    <g transform="matrix(1,0,0,1,219.793,-18.3583)">
        <text x="233.523px" y="804.25px" style="font-family:'ArialMT', 'Arial', sans-serif;font-size:150px;">Lexon</text>
    </g>
    <g transform="matrix(1,0,0,1,361.65,12.6003)">
        <text x="95.182px" y="969.867px" style="font-family:'ArialMT', 'Arial', sans-serif;font-size:150px;">CDL/CEL</text>
    </g>
    <g transform="matrix(1,0,0,1,-124.781,-87.0388)">
        <text x="338.35px" y="1239.05px" style="font-family:'ArialMT', 'Arial', sans-serif;font-size:150px;">Logical English</text>
    </g>
    <g transform="matrix(1,0,0,1,407.278,-250.469)">
        <text x="165.538px" y="1598px" style="font-family:'ArialMT', 'Arial', sans-serif;font-size:150px;">Attempto</text>
    </g>
    <g transform="matrix(1,0,0,1,493.604,-323.357)">
        <text x="213.727px" y="1889.42px" style="font-family:'ArialMT', 'Arial', sans-serif;font-size:150px;">Metafor</text>
    </g>
    <g transform="matrix(1,0,0,1,214.963,-294.219)">
        <text x="207.273px" y="2086.51px" style="font-family:'ArialMT', 'Arial', sans-serif;font-size:150px;">W<tspan x="346.14px 429.563px " y="2086.51px 2086.51px ">ol</tspan>fram</text>
    </g>
    <g transform="matrix(1,0,0,1,-52.916,27.6488)">
        <text x="159.666px" y="1538.42px" style="font-family:'ArialMT', 'Arial', sans-serif;font-size:150px;">Inform7</text>
    </g>
    <g transform="matrix(1,0,0,1,-186.864,-984.822)">
        <text x="2812.25px" y="1137.44px" style="font-family:'ArialMT', 'Arial', sans-serif;font-size:150px;">PeytonJones</text>
    </g>
</svg>
